<?xml version="1.0" encoding="utf-8"?>
<svg viewBox="250.978 281.503 75 75" width="75" height="75" xmlns="http://www.w3.org/2000/svg">
  <defs>
    <linearGradient id="paint0_linear_23_750" x1="23.0107" y1="82.0513" x2="23.0107" y2="0.0769275" gradientUnits="userSpaceOnUse" gradientTransform="matrix(0.503667, 0, 0, 0.503667, 268.257649, 298.447788)">
      <stop stop-color="#3341F5"/>
      <stop offset="1" stop-color="#5E69FF"/>
    </linearGradient>
  </defs>
  <rect width="75" height="75" rx="10" fill="#3341F5" fill-opacity="0.1" transform="matrix(1, 0, 0, 1, 250.978081, 281.502602)"/>
  <path fill-rule="evenodd" clip-rule="evenodd" d="M 295.654 304.89 L 301.049 302.392 C 298.964 300.874 296.583 299.736 294.009 299.082 C 292.377 298.668 290.668 298.447 288.908 298.447 C 287.607 298.447 286.335 298.568 285.102 298.797 L 283.49 306.136 L 282.989 308.415 L 282.418 311.017 L 285.696 309.5 L 288.565 308.171 L 293.483 305.895 L 295.654 304.89 Z M 309.558 319.097 L 309.558 319.068 L 303.503 316.64 L 301.255 315.739 L 298.402 314.595 L 299.425 318.205 L 300.231 321.05 L 301.964 327.169 L 302.628 329.514 L 303.745 333.46 C 304.894 332.273 305.902 330.949 306.742 329.514 C 307.183 328.762 307.577 327.978 307.921 327.169 C 308.975 324.689 309.558 321.961 309.558 319.097 Z M 282.374 299.502 L 281.125 305.188 L 280.625 307.466 L 279.554 312.343 L 278.915 315.251 L 278.024 319.311 L 269.938 310.925 C 270.922 308.644 272.304 306.577 273.999 304.81 C 274.587 304.196 275.212 303.619 275.872 303.081 C 277.785 301.523 279.982 300.299 282.374 299.502 Z M 269.894 327.169 L 281.752 327.169 L 279.425 324.643 L 277.348 322.387 L 273.208 317.893 L 271.521 316.061 L 269.057 313.387 C 268.673 314.723 268.421 316.114 268.315 317.546 C 268.277 318.058 268.257 318.575 268.257 319.098 C 268.257 319.458 268.267 319.816 268.285 320.171 C 268.411 322.644 268.973 325.001 269.894 327.169 Z M 291.033 329.514 L 287.856 333.795 L 283.894 339.135 C 281.36 338.503 279.012 337.403 276.946 335.932 C 276.178 335.386 275.45 334.789 274.765 334.145 C 273.324 332.791 272.078 331.232 271.073 329.514 L 291.033 329.514 Z M 292.971 339.348 C 296.261 338.692 299.269 337.254 301.793 335.236 L 300.172 329.514 L 299.508 327.169 L 298.453 323.445 L 295.691 327.169 L 293.95 329.514 L 289.472 335.549 L 286.462 339.605 C 287.264 339.699 288.08 339.748 288.907 339.748 C 290.298 339.748 291.657 339.611 292.971 339.348 Z M 309.399 316.525 L 304.921 314.73 L 302.673 313.828 L 297.61 311.798 L 294.84 310.687 L 291.589 309.384 L 294.137 308.204 L 296.308 307.199 L 303.07 304.069 C 304.45 305.37 305.651 306.858 306.631 308.494 C 307.077 309.238 307.478 310.011 307.828 310.812 C 308.612 312.598 309.15 314.517 309.399 316.525 Z M 292.792 327.169 L 297.619 320.678 L 295.553 313.473 L 288.657 310.718 L 281.793 313.884 L 280.109 321.563 L 285.469 327.169 L 292.792 327.169 Z" fill="url(#paint0_linear_23_750)" style=""/>
</svg>