<svg width="35" height="35" viewBox="0 0 35 35" fill="none" xmlns="http://www.w3.org/2000/svg">
<rect width="35" height="35" rx="7.86125" fill="#3341F5" fill-opacity="0.1"/>
<path fill-rule="evenodd" clip-rule="evenodd" d="M17.4822 8.02747C12.0471 8.02747 7.64499 12.4121 7.64499 17.8256C7.64499 22.1612 10.4609 25.8233 14.3712 27.1215C14.8631 27.2073 15.0475 26.9133 15.0475 26.6561C15.0475 26.4234 15.0352 25.6518 15.0352 24.8312C12.5636 25.2844 11.9242 24.2311 11.7274 23.6799C11.6168 23.3982 11.1372 22.5287 10.7191 22.296C10.3748 22.1122 9.88296 21.6591 10.7068 21.6468C11.4815 21.6346 12.0349 22.3572 12.2193 22.6511C13.1047 24.1331 14.5188 23.7167 15.0844 23.4595C15.1705 22.8226 15.4287 22.3939 15.7115 22.149C13.5227 21.904 11.2356 21.0589 11.2356 17.3112C11.2356 16.2456 11.6168 15.3638 12.2439 14.6779C12.1455 14.433 11.8012 13.4287 12.3423 12.0814C12.3423 12.0814 13.1661 11.8242 15.0475 13.0857C15.8345 12.8653 16.6706 12.7551 17.5068 12.7551C18.343 12.7551 19.1791 12.8653 19.9661 13.0857C21.8475 11.812 22.6714 12.0814 22.6714 12.0814C23.2124 13.4287 22.8681 14.433 22.7697 14.6779C23.3969 15.3638 23.778 16.2334 23.778 17.3112C23.778 21.0712 21.4786 21.904 19.2898 22.149C19.6464 22.4552 19.9538 23.0431 19.9538 23.9616C19.9538 25.2721 19.9415 26.3254 19.9415 26.6561C19.9415 26.9133 20.126 27.2195 20.6178 27.1215C24.5035 25.8233 27.3194 22.149 27.3194 17.8256C27.3194 12.4121 22.9173 8.02747 17.4822 8.02747Z" fill="url(#paint0_linear_35_61)"/>
<defs>
<linearGradient id="paint0_linear_35_61" x1="13.166" y1="27.1522" x2="13.166" y2="8.0454" gradientUnits="userSpaceOnUse">
<stop stop-color="#3341F5"/>
<stop offset="1" stop-color="#5E69FF"/>
</linearGradient>
</defs>
</svg>
