<svg width="812" height="611" viewBox="0 0 812 611" fill="none" xmlns="http://www.w3.org/2000/svg">
<path d="M527.885 232.189C496.5 286.5 448.177 291.108 420.146 308.502C394.432 324.461 346.815 368.426 344.38 402.643C341.94 436.912 364.229 473.591 398.001 480.139C412.666 482.988 427.991 480.223 442.736 482.818C489.861 491.178 510.584 547.218 549.856 574.574C595.167 606.058 658.46 594.109 706.477 566.927C736.974 549.642 765.377 525.393 778.027 492.755C790.683 460.064 783.416 418.06 754.453 398.241C728.39 380.368 685.995 377.994 678.45 347.331C673.122 325.908 690.147 305.956 695.829 284.619C704.662 251.2 682.419 214.578 650.766 200.626C619.06 186.67 581.205 192.525 550.833 209.139C541.703 214.101 534.164 222.392 527.879 232.241" fill="#4F5BFB"/>
<path d="M296.884 123.824C249.113 139.831 217.573 116.912 191.45 112.478C167.485 108.414 115.443 109.562 95.7842 128.866C76.0943 148.197 70.0094 182.13 86.8588 204.028C94.172 213.54 104.867 220.024 112.364 229.426C136.289 259.516 118.967 304.27 128.063 341.619C138.6 384.664 183.055 411.124 226.413 420.292C253.963 426.102 283.955 426.606 308.924 413.684C333.924 400.734 351.883 371.584 344.985 344.253C338.799 319.636 314.54 295.665 326.302 273.194C334.484 257.466 355.342 254.507 370.107 244.683C393.194 229.261 399.276 195.389 387.639 170.16C375.973 144.9 350.072 128.297 322.954 122.15C314.82 120.282 305.873 121.265 296.853 123.852" fill="#E7E9FF"/>
</svg>
