<svg width="149" height="50" viewBox="0 0 149 50" fill="none" xmlns="http://www.w3.org/2000/svg">
<path fill-rule="evenodd" clip-rule="evenodd" d="M20.5673 0.112345C16.0667 0.665501 11.1134 2.9787 6.8893 6.54907C6.03442 7.25308 4.24924 8.98798 4.24924 9.08855C4.24924 9.13884 5.10412 10.044 6.16014 11.1L8.07104 13.0361L7.26645 13.9412C4.29953 17.2853 2.28805 20.6797 1.08117 24.2752C0.326863 26.5381 0 28.3987 0 30.4856C0 32.3714 0.251433 33.9051 0.829732 35.3886L1.05602 35.992L6.66301 41.599C11.3397 46.2757 12.3957 47.2814 12.974 47.6586C14.1809 48.4632 15.5889 49.0163 17.1478 49.3432C18.1787 49.5695 20.5673 49.6449 21.6988 49.4941C26.1743 48.9409 30.8007 46.8289 34.8488 43.4596C35.9048 42.5796 37.69 40.895 37.69 40.7944C37.69 40.7441 36.81 39.839 35.754 38.7578L33.8179 36.7966L34.4214 36.168C35.9048 34.6091 37.7152 32.1199 38.7712 30.1588C40.2798 27.4181 41.2604 24.4512 41.5872 21.7357C41.713 20.554 41.6375 18.0396 41.4364 17.0842C41.0844 15.475 40.5312 14.1675 39.7015 12.9104C39.274 12.2566 38.4192 11.3766 33.6922 6.6245L28.1606 1.09294L27.5823 0.866648C26.8029 0.539783 25.1937 0.162633 24.2131 0.0620588C23.2325 -0.038515 21.6988 -0.0133723 20.5673 0.112345ZM25.3194 1.59581C25.7217 1.69638 26.3755 1.84724 26.7275 1.97296C27.3812 2.19925 27.4063 2.19925 28.4372 3.23013C29.3424 4.1353 29.4681 4.26101 29.2418 4.23587C28.0349 4.00958 26.0989 3.95929 24.5903 4.16044C19.7627 4.76388 14.7843 7.20279 10.2082 11.2257C9.75565 11.628 9.35336 11.9801 9.27793 12.0303C9.2025 12.0806 8.8002 11.7538 7.61846 10.572L6.05957 9.01312L7.06531 8.1331C11.2643 4.46216 15.8907 2.14896 20.4165 1.49523C21.6234 1.31923 24.3137 1.39466 25.3194 1.59581ZM31.907 9.59142C34.1196 9.91829 36.0557 10.8737 37.4889 12.3069C38.8969 13.7149 39.8021 15.5253 40.2295 17.7882C40.4055 18.7939 40.4055 21.0568 40.2295 22.2386C39.6512 25.8844 37.9666 29.6307 35.3517 33.0503C34.7482 33.8548 33.3151 35.5394 33.0888 35.7155C32.963 35.816 32.8122 35.6903 31.5047 34.3829C30.7001 33.5783 30.0464 32.8994 30.0464 32.8742C30.0464 32.8491 30.2727 32.5725 30.5493 32.2708C35.1002 27.2421 37.2374 20.9563 35.7288 17.059C35.1254 15.5504 33.8682 14.419 32.2339 13.9161C31.4042 13.6647 29.9458 13.5389 28.8647 13.6647C27.2052 13.8155 25.1686 14.4693 23.2074 15.4247C21.2462 16.3802 19.461 17.587 17.7261 19.1459L16.9467 19.8248L15.4632 18.3413L13.9797 16.8579L14.6083 16.2796C18.4553 12.6841 23.5594 10.1194 27.9344 9.54113C28.8144 9.4657 31.0773 9.4657 31.907 9.59142ZM11.1134 18.2659C10.5602 18.8945 9.85623 19.7745 9.50422 20.2271C5.33041 25.7838 3.41951 31.8182 4.19895 37.0229L4.24924 37.3498L3.21836 36.344C2.23776 35.3886 2.18748 35.3132 1.98633 34.7097C0.0251438 29.0776 2.4892 21.3083 8.29733 14.7961L8.97621 14.0418L10.5351 15.6007L12.094 17.1596L11.1134 18.2659ZM30.7504 15.0475L30.9516 15.0978L30.9013 16.1539C30.851 17.411 30.675 18.4419 30.4236 19.3219C29.619 21.962 28.1355 24.6021 25.9732 27.0913L25.1434 28.0467L23.5594 26.4627L21.9754 24.8786L22.7045 24.074C24.2634 22.3643 25.6966 20.378 26.5766 18.6933C27.0543 17.7882 27.6829 16.2544 27.8589 15.5504C27.9595 15.123 27.9595 15.123 28.3367 15.0727C28.5378 15.0476 28.7641 15.0224 28.8395 14.9973C29.0407 14.9973 30.5744 14.9973 30.7504 15.0475ZM26.2497 16.1539C25.8977 17.1345 25.1183 18.6431 24.364 19.7745C23.5343 21.0317 22.956 21.786 21.7994 23.0935L20.9948 24.0238L19.4107 22.4397L17.8267 20.8557L18.3547 20.378C19.989 18.9196 21.8999 17.6122 23.66 16.707C24.6154 16.2293 26.1743 15.6007 26.4006 15.5756C26.4257 15.5756 26.3755 15.827 26.2497 16.1539ZM50.3372 17.1093C50.2617 17.1847 50.2366 19.2716 50.2366 26.9152C50.2366 36.2183 50.2366 36.6206 50.3874 36.7463C50.5132 36.8721 50.9155 36.8721 54.3098 36.8721C56.3716 36.8721 58.6094 36.8218 59.2631 36.7966C61.9031 36.6206 63.9398 35.7657 65.4986 34.2068C66.7307 32.9748 67.5101 31.2651 67.9124 29.0022C68.0884 27.8958 68.0884 25.5827 67.9124 24.5015C67.2587 20.8557 65.1718 18.4922 61.8277 17.5367C60.1934 17.0842 60.0677 17.059 55.0893 17.0339C51.3932 17.0339 50.4126 17.0339 50.3372 17.1093ZM141.884 17.4362C141.809 17.5116 141.784 18.1402 141.784 19.7494V21.962H140.828C140.2 21.962 139.848 21.9871 139.772 22.0626C139.647 22.1883 139.647 24.8032 139.772 24.9541C139.848 25.0295 140.2 25.0546 140.828 25.0546H141.784L141.809 29.5302C141.834 33.9051 141.834 34.0308 142.01 34.5337C142.488 35.9166 143.468 36.6709 145.052 36.8721C146.134 36.9978 147.667 36.9475 148.723 36.7463L148.95 36.6961L148.925 34.8606L148.899 33.0251L147.894 32.9748C146.813 32.9245 146.637 32.8742 146.511 32.648C146.46 32.5474 146.435 31.0388 146.435 28.801V25.1049L147.718 25.0798L149 25.0546V23.5209V21.9871L147.718 21.962L146.435 21.9368V19.7745C146.435 18.4419 146.41 17.5619 146.36 17.4613C146.285 17.3105 146.159 17.3105 144.147 17.3105C142.563 17.3607 141.96 17.3859 141.884 17.4362ZM59.5899 21.6854C61.1237 22.0877 62.1294 23.1689 62.5317 24.7529C62.8335 25.9598 62.8334 27.9713 62.5066 29.2284C62.1797 30.4605 61.4254 31.4411 60.4197 31.9188C59.5397 32.3462 59.0116 32.4217 57.2013 32.472L55.567 32.5222V26.9907V21.4591L57.327 21.5094C58.6093 21.5346 59.2379 21.5848 59.5899 21.6854ZM74.9526 21.786C72.4382 22.2386 70.5022 23.898 69.6473 26.3118C68.5159 29.4799 69.069 33.1005 70.9799 35.1372C71.9857 36.1932 72.9411 36.7463 74.3994 37.1235C77.1903 37.8275 80.1824 37.0983 82.1688 35.2377C82.6465 34.8103 83.8785 33.2514 83.8785 33.1005C83.8785 32.9245 83.5265 32.6982 82.0933 31.9691C81.2133 31.5165 80.4841 31.1394 80.459 31.1394C80.4339 31.1394 80.283 31.3656 80.1321 31.6422C79.7801 32.3211 79.051 33.0754 78.523 33.352C76.9389 34.1314 75.0783 33.6788 74.2737 32.3211C74.0474 31.9188 73.8211 31.2148 73.8211 30.8376V30.561H78.8498C82.6465 30.561 83.8785 30.5359 83.9539 30.4605C84.0797 30.3348 84.0797 29.329 83.9288 28.3233C83.5265 25.6329 82.395 23.6969 80.5847 22.6157C79.9813 22.2637 78.8247 21.8614 78.0704 21.7357C77.3161 21.61 75.7069 21.6351 74.9526 21.786ZM91.4718 21.6854C90.7678 21.786 90.1895 21.9117 89.7369 22.0626C87.1974 22.8672 85.5128 24.9541 84.9848 27.921C84.7837 29.0524 84.8591 30.8628 85.1357 31.9439C85.5128 33.4023 86.066 34.3577 87.0717 35.3132C87.9517 36.1429 88.9826 36.7212 90.3655 37.0983C90.7678 37.2241 91.1701 37.2492 92.201 37.2492C93.3827 37.2492 93.5587 37.2241 94.2125 37.0229C95.5199 36.6206 96.5257 36.0172 97.4308 35.0617C98.0343 34.4331 98.7131 33.5028 98.7131 33.3017C98.7131 33.2263 98.5874 33.1005 98.4617 33C97.9337 32.6731 95.4948 31.4662 95.3691 31.4662C95.2936 31.4662 95.1679 31.6422 95.0422 31.8937C94.7405 32.5474 94.3382 32.9748 93.7096 33.2765C93.2319 33.5028 93.081 33.5531 92.553 33.528C91.849 33.528 91.3964 33.352 90.8181 32.8491C89.3095 31.5165 89.2089 27.8204 90.6421 26.1358C91.5472 25.0798 93.2319 25.0798 94.313 26.1107C94.489 26.2867 94.7405 26.6135 94.8662 26.8398C94.9919 27.0661 95.1428 27.2673 95.2182 27.2673C95.3942 27.3175 98.4868 25.5324 98.5371 25.3564C98.5623 25.2055 98.2354 24.7026 97.7577 24.0992C96.9782 23.1437 95.4445 22.2134 94.1119 21.9117C93.433 21.7357 91.9747 21.6351 91.4718 21.6854ZM131.802 21.8614C130.972 22.0123 130.218 22.314 129.614 22.7666L129.137 23.1186L129.112 22.6157L129.086 22.1129L127.15 22.0877C125.441 22.0626 125.189 22.0877 125.063 22.2134C124.913 22.3391 124.913 22.7163 124.913 32.0194C124.913 39.4367 124.938 41.6996 125.013 41.775C125.164 41.9259 129.388 41.9259 129.514 41.775C129.589 41.6996 129.614 40.9453 129.614 38.9087V36.1429L130.394 36.5452C131.45 37.0732 132.104 37.1989 133.336 37.1486C134.769 37.0732 135.624 36.7966 136.554 36.0926C137.861 35.112 138.716 33.6034 139.194 31.5165C139.445 30.4102 139.445 28.4741 139.194 27.2924C138.867 25.7335 138.339 24.6775 137.384 23.6717C135.976 22.1129 133.914 21.4843 131.802 21.8614ZM18.405 23.3449C19.7627 24.7026 19.8382 24.8032 19.7376 24.9541C19.6622 25.0295 19.3353 25.4066 18.9833 25.8089C17.5753 27.4181 16.2678 29.3793 15.3878 31.1896C14.7592 32.4719 14.382 33.528 14.0049 34.9612C13.5272 36.8469 13.5272 38.9338 14.0552 40.3921C15.0358 43.1579 17.6255 44.4654 21.2462 44.0379C24.7411 43.6105 28.7641 41.599 32.2087 38.5567L32.9379 37.9029L34.4214 39.3864L35.9048 40.8699L35.2762 41.4482C32.0579 44.4402 27.7584 46.8791 24.0371 47.7843C22.5285 48.1615 21.4725 48.2872 20.0393 48.2872C18.1284 48.2872 16.7204 48.0357 15.2369 47.382C13.326 46.5523 11.566 44.918 10.6608 43.1076C9.52936 40.8699 9.2025 38.1041 9.70537 35.112C10.4094 30.9382 12.7477 26.4627 16.1924 22.6157C16.5444 22.2134 16.8712 21.8866 16.8964 21.8866C16.9215 21.8866 17.6004 22.5403 18.405 23.3449ZM107.865 21.9871C106.885 22.138 105.653 22.5906 104.848 23.1186L104.597 23.2946V22.7666C104.597 22.4649 104.546 22.2134 104.496 22.138C104.421 22.0626 103.842 22.0374 102.359 22.0374C100.498 22.0374 100.297 22.0374 100.197 22.1883C100.071 22.314 100.071 22.9426 100.071 29.4799C100.071 36.2938 100.071 36.6206 100.222 36.7463C100.347 36.8721 100.624 36.8721 102.434 36.8721C104.044 36.8721 104.521 36.8469 104.597 36.7715C104.647 36.696 104.697 35.2126 104.697 32.1702C104.722 27.9461 104.722 27.6444 104.873 27.3678C105.175 26.7644 105.703 26.513 107.237 26.2615C107.815 26.161 108.393 26.0604 108.519 26.0352L108.745 25.9849V24.0238C108.745 22.0626 108.72 21.8363 108.469 21.8866C108.368 21.9117 108.117 21.9369 107.865 21.9871ZM109.927 22.1631C109.877 22.2386 109.852 22.3643 109.877 22.49C109.902 22.5906 110.581 24.8032 111.385 27.3678C114.604 37.7269 114.428 37.1235 114.201 37.5258C114 37.9281 113.648 38.0035 112.391 38.0035C111.612 38.0035 111.209 38.0286 111.159 38.1041C111.084 38.1795 111.059 38.6824 111.059 39.9144C111.059 41.1464 111.084 41.6493 111.159 41.7247C111.285 41.8505 114.478 41.8505 115.308 41.7499C116.691 41.5487 117.822 40.5681 118.476 39.0092C118.627 38.6824 119.909 34.7851 121.342 30.3599C123.53 23.6717 123.957 22.2889 123.857 22.1883C123.781 22.0877 123.404 22.0626 121.418 22.0626H119.079L119.004 22.4146C118.954 22.6157 118.476 24.7026 117.923 27.0913C117.37 29.4799 116.917 31.4662 116.867 31.4914C116.842 31.5165 116.314 29.4044 115.735 26.8147L114.654 22.0626H112.316C110.38 22.0626 110.003 22.0626 109.927 22.1631ZM77.8189 25.3061C78.5732 25.6581 79.0761 26.3369 79.227 27.1667L79.2773 27.4684H76.5869H73.8966L73.9468 27.217C74.0474 26.7644 74.4749 26.0352 74.8269 25.7335C75.4303 25.2055 75.9583 25.0295 76.788 25.0798C77.1903 25.1049 77.4921 25.1804 77.8189 25.3061ZM133.31 25.4318C134.014 25.8089 134.543 26.5884 134.794 27.6444C134.97 28.4239 134.97 30.2845 134.769 31.0639C134.593 31.7428 134.241 32.4468 133.864 32.9245C133.26 33.6537 132.078 33.8548 131.123 33.3771C130.017 32.824 129.489 31.5919 129.489 29.5302C129.489 27.6193 129.992 26.2615 130.922 25.5826C131.651 25.0798 132.531 25.0295 133.31 25.4318ZM23.3331 29.505C21.2713 31.4411 18.6313 33.176 16.4438 34.056C15.9912 34.232 15.5889 34.3829 15.5638 34.3829C15.5386 34.3829 15.6392 34.1063 15.7649 33.7543C16.7204 31.1142 18.3799 28.4239 20.3662 26.2867L20.8439 25.7838L22.4279 27.3427L24.012 28.9016L23.3331 29.505ZM26.5012 31.4662L28.0349 33L27.5572 33.4525C25.0429 35.816 21.1708 37.9532 18.4301 38.5315C17.7513 38.6824 16.2427 38.8332 15.5135 38.8332H15.0358V37.6766C15.0358 37.0481 15.0609 36.3692 15.0861 36.2183L15.1363 35.9166L16.1169 35.5897C18.6061 34.7851 21.7742 32.7988 24.1126 30.5862C24.4897 30.2342 24.8417 29.9325 24.892 29.9325C24.9423 29.9325 25.6714 30.6113 26.5012 31.4662Z" fill="#6066D2" fill-opacity="0.2"/>
</svg>
