<?xml version="1.0" encoding="utf-8"?>
<svg viewBox="250.978 281.503 75 75" width="75" height="75" xmlns="http://www.w3.org/2000/svg">
  <rect width="75" height="75" rx="10" fill="#3341F5" fill-opacity="0.1" transform="matrix(1, 0, 0, 1, 250.978077, 281.502598)"/>
  <g id="surface1" transform="matrix(0.0434, 0, 0, 0.0434, 288.439061, 316.589299)" style="">
    <path d="M 437.019531 74.980469 C 388.667969 26.628906 324.378906 0 256 0 C 187.621094 0 123.332031 26.628906 74.980469 74.980469 C 26.628906 123.332031 0 187.621094 0 256 C 0 324.378906 26.628906 388.667969 74.980469 437.019531 C 123.332031 485.371094 187.621094 512 256 512 C 324.378906 512 388.667969 485.371094 437.019531 437.019531 C 485.371094 388.667969 512 324.378906 512 256 C 512 187.621094 485.371094 123.332031 437.019531 74.980469 Z M 256 458 C 144.617188 458 54 367.382812 54 256 C 54 144.617188 144.617188 54 256 54 C 367.382812 54 458 144.617188 458 256 C 458 367.382812 367.382812 458 256 458 Z M 256 458 " style="stroke: none; fill-rule: nonzero; fill-opacity: 1; fill: rgb(79, 91, 252);"/>
    <path d="M 256 84 C 161.160156 84 84 161.160156 84 256 C 84 350.839844 161.160156 428 256 428 C 350.839844 428 428 350.839844 428 256 C 428 161.160156 350.839844 84 256 84 Z M 320.53125 317.371094 C 316.886719 324.226562 311.976562 329.777344 305.796875 334.007812 C 299.613281 338.242188 292.503906 341.335938 284.460938 343.277344 C 280.058594 344.34375 275.539062 345.105469 270.90625 345.589844 L 270.90625 380.550781 L 240.90625 380.550781 L 240.90625 344.929688 C 233.574219 343.921875 226.289062 342.328125 219.058594 340.101562 C 205.847656 336.039062 193.992188 330.285156 183.496094 322.832031 L 198.992188 292.605469 C 200.515625 294.128906 203.265625 296.121094 207.246094 298.574219 C 211.222656 301.03125 215.921875 303.488281 221.34375 305.941406 C 226.761719 308.398438 232.773438 310.472656 239.378906 312.164062 C 245.980469 313.859375 252.75 314.703125 259.695312 314.703125 C 279 314.703125 288.652344 308.523438 288.652344 296.160156 C 288.652344 292.265625 287.546875 288.964844 285.351562 286.253906 C 283.148438 283.546875 280.015625 281.175781 275.953125 279.144531 C 271.890625 277.109375 266.976562 275.25 261.222656 273.554688 C 255.460938 271.863281 249.027344 270 241.917969 267.96875 C 233.28125 265.597656 225.789062 263.015625 219.4375 260.21875 C 213.089844 257.425781 207.792969 254.125 203.5625 250.3125 C 199.328125 246.503906 196.152344 242.101562 194.039062 237.105469 C 191.921875 232.113281 190.863281 226.144531 190.863281 219.199219 C 190.863281 210.054688 192.554688 201.925781 195.945312 194.816406 C 199.328125 187.703125 204.027344 181.777344 210.039062 177.035156 C 216.050781 172.296875 223.035156 168.695312 230.996094 166.238281 C 234.203125 165.253906 237.507812 164.472656 240.90625 163.882812 L 240.90625 131.191406 L 270.90625 131.191406 L 270.90625 163.453125 C 278.21875 164.398438 285.152344 166.085938 291.699219 168.523438 C 302.367188 172.507812 311.679688 177.203125 319.640625 182.621094 L 304.148438 211.070312 C 302.960938 209.886719 300.800781 208.277344 297.667969 206.242188 C 294.535156 204.210938 290.722656 202.222656 286.238281 200.273438 C 281.75 198.328125 276.882812 196.679688 271.636719 195.320312 C 266.382812 193.96875 261.050781 193.289062 255.632812 193.289062 C 245.980469 193.289062 238.78125 195.066406 234.042969 198.625 C 229.300781 202.179688 226.929688 207.175781 226.929688 213.609375 C 226.929688 217.335938 227.820312 220.429688 229.597656 222.882812 C 231.375 225.339844 233.953125 227.496094 237.34375 229.359375 C 240.730469 231.222656 245.003906 232.914062 250.171875 234.4375 C 255.335938 235.960938 261.304688 237.574219 268.078125 239.265625 C 276.882812 241.636719 284.882812 244.175781 292.082031 246.882812 C 299.277344 249.59375 305.371094 252.980469 310.367188 257.042969 C 315.359375 261.109375 319.214844 265.976562 321.925781 271.648438 C 324.632812 277.324219 325.988281 284.308594 325.988281 292.601562 C 325.992188 302.257812 324.167969 310.511719 320.53125 317.371094 Z M 320.53125 317.371094 " style="stroke: none; fill-rule: nonzero; fill-opacity: 1; fill: rgb(79, 91, 252);"/>
  </g>
  <g id="Layer_49" data-name="Layer 49" transform="matrix(0.3968, 0, 0, 0.3968, 264.588841, 315.369206)" style="">
    <path d="m41.669 32.191-9.669-17.127-9.669 17.127 9.669 3.708z" style="fill: rgb(79, 91, 252);"/>
    <path d="m32 8a24 24 0 1 0 24 24 24.028 24.028 0 0 0 -24-24zm-11.98 24.218 11.109-19.68a1.041 1.041 0 0 1 1.742 0l11.11 19.68a1 1 0 0 1 -.512 1.426l-11.111 4.256a.99.99 0 0 1 -.716 0l-11.11-4.259a1 1 0 0 1 -.512-1.426zm25.706 4.437-12.97 14.97a1 1 0 0 1 -1.512 0l-12.97-14.97a1 1 0 0 1 1.114-1.589l12.612 4.834 12.612-4.833a1 1 0 0 1 1.114 1.589z" style="fill: rgb(79, 91, 252);"/>
    <path d="m31.642 41.9-9.242-3.538 9.6 11.08 9.6-11.08-9.242 3.538a.993.993 0 0 1 -.716 0z" style="fill: rgb(79, 91, 252);"/>
    <path d="m32 4a28 28 0 1 0 28 28 28.032 28.032 0 0 0 -28-28zm0 54a26 26 0 1 1 26-26 26.03 26.03 0 0 1 -26 26z" style="fill: rgb(79, 91, 252);"/>
  </g>
  <g transform="matrix(0.046283, 0, 0, 0.046283, 287.839604, 295.297886)" style="">
    <path d="m325.6 234.947c-3.084-5.341-10.778-5.332-13.856 0l-39.634 68.647c-3.084 5.341.772 12 6.928 12h79.268c6.167 0 10.006-6.668 6.928-12z" style="fill: rgb(79, 91, 252);"/>
    <path d="m240.054 58.051c-100.355 0-182 81.645-182 182s81.645 182 182 182c104.59 0 188.346-87.872 181.619-193.882-6.14-95.39-85.917-170.118-181.619-170.118zm-139.037 237.543 118.252-204.818c9.236-15.995 32.323-16.014 41.569 0l32.939 57.053c7.22 12.505 7.22 28.043 0 40.55l-71.139 123.216c-7.122 12.336-20.396 20-34.641 20h-66.196c-18.468-.001-30.031-19.986-20.784-36.001zm188.037 82.457h-98c-4.418 0-8-3.582-8-8s3.582-8 8-8h98c4.418 0 8 3.582 8 8s-3.582 8-8 8zm69.252-46.457h-79.268c-18.468 0-30.031-19.983-20.785-36l39.634-68.647c9.235-15.995 32.323-16.015 41.569 0l39.634 68.647c9.235 15.994-2.291 36-20.784 36z" style="fill: rgb(79, 91, 252);"/>
    <path d="m208.782 303.594 71.139-123.216c4.372-7.571 4.372-16.979 0-24.55l-32.939-57.053c-3.079-5.331-10.772-5.341-13.856 0l-118.252 204.819c-3.084 5.341.771 12 6.928 12h66.196c8.547 0 16.511-4.597 20.784-12z" style="fill: rgb(79, 91, 252);"/>
    <path d="m409.764 70.341c-93.772-93.772-245.817-93.862-339.6.17-93.53 93.778-93.624 245.446.18 339.25 93.787 93.787 245.756 93.851 339.56-.16 93.578-93.785 93.664-245.455-.14-339.26zm-169.71 367.71c-109.178 0-198-88.822-198-198s88.822-198 198-198c104.723 0 190.913 81.413 197.586 185.098 7.37 116.134-84.768 210.902-197.586 210.902z" style="fill: rgb(79, 91, 252);"/>
  </g>
  <g transform="matrix(0.462802, 0, 0, 0.462802, 265.648167, 295.228276)" style="">
    <path d="m25 1c-13.255 0-24 10.745-24 24s10.745 24 24 24 24-10.745 24-24-10.745-24-24-24zm0 43.5c-10.753 0-19.5-8.748-19.5-19.5s8.747-19.5 19.5-19.5 19.5 8.747 19.5 19.5-8.748 19.5-19.5 19.5z" style="fill: rgb(79, 91, 252);"/>
    <g>
      <path d="m26.239 25.779h-3.151v4.681h3.151c.636 0 1.226-.258 1.64-.691.433-.415.691-1.004.691-1.659.001-1.281-1.05-2.331-2.331-2.331z" style="fill: rgb(79, 91, 252);"/>
      <path d="m25 7.5c-9.65 0-17.5 7.85-17.5 17.5s7.85 17.5 17.5 17.5 17.5-7.851 17.5-17.5-7.851-17.5-17.5-17.5zm3.561 25.604h-2.064v3.244h-2.165v-3.244h-1.189v3.244h-2.175v-3.244h-3.824v-2.036h2.11v-12.2h-2.11v-2.036h3.824v-3.179h2.175v3.179h1.189v-3.179h2.165v3.179h1.88c1.05 0 2.018.433 2.709 1.124s1.124 1.659 1.124 2.709c0 2.055-1.622 3.732-3.649 3.824 2.377 0 4.294 1.935 4.294 4.312 0 2.368-1.916 4.303-4.294 4.303z" style="fill: rgb(79, 91, 252);"/>
      <path d="m27.631 22.904c.378-.378.608-.885.608-1.456 0-1.133-.921-2.055-2.055-2.055h-3.096v4.119h3.096c.562 0 1.078-.24 1.447-.608z" style="fill: rgb(79, 91, 252);"/>
    </g>
  </g>
</svg>