<svg width="75" height="75" viewBox="0 0 75 75" fill="none" xmlns="http://www.w3.org/2000/svg">
<rect width="75" height="75" rx="10" fill="#3341F5" fill-opacity="0.1"/>
<path d="M37.9985 19.6229C37.2219 19.6229 36.5923 20.2525 36.5923 21.0292C36.5923 21.8058 37.2219 22.4354 37.9985 22.4354C42.6517 22.4354 46.4374 26.2205 46.4374 30.8729C46.4374 31.6495 47.0671 32.2792 47.8437 32.2792C48.6203 32.2792 49.2499 31.6495 49.2499 30.8729C49.2499 24.6697 44.2026 19.6229 37.9985 19.6229Z" fill="url(#paint0_linear_28_21)"/>
<path d="M34.3752 14.3767C28.0218 15.7043 22.8702 20.8065 21.5147 27.1995C20.3701 32.5978 21.7806 38.0175 25.3844 42.0689C27.1461 44.0491 28.1563 46.6632 28.1563 49.248V52.0605C28.1563 53.9317 29.3814 55.5214 31.0713 56.072C31.627 59.3556 34.477 61.9979 38.0001 61.9979C41.5222 61.9979 44.3729 59.3565 44.9289 56.072C46.6188 55.5214 47.8438 53.9317 47.8438 52.0604V49.2479C47.8438 46.658 48.8574 44.0754 50.6978 41.9758C53.3916 38.9026 54.8751 34.9595 54.8751 30.873C54.8751 20.2262 45.1299 12.1299 34.3752 14.3767ZM38.0001 59.1855C36.1924 59.1855 34.6074 57.9416 34.0222 56.2698H41.9779C41.3927 57.9416 39.8078 59.1855 38.0001 59.1855ZM45.0313 52.0605C45.0313 52.8359 44.4005 53.4667 43.6251 53.4667H32.3751C31.5997 53.4667 30.9688 52.8359 30.9688 52.0605V50.6542H45.0313V52.0605ZM48.5828 40.122C46.6215 42.3596 45.4149 45.0577 45.1087 47.8417H30.8918C30.5859 45.0562 29.3824 42.3315 27.486 40.1996C24.4825 36.8231 23.3088 32.2973 24.2661 27.7829C25.3835 22.5128 29.6772 18.2317 34.9506 17.1299C43.9528 15.2486 52.0626 22.0091 52.0626 30.873C52.0626 34.2772 50.8268 37.5619 48.5828 40.122Z" fill="url(#paint1_linear_28_21)"/>
<path d="M18.2188 30.8729H15.4062C14.6296 30.8729 14 31.5025 14 32.2792C14 33.0558 14.6296 33.6854 15.4062 33.6854H18.2188C18.9954 33.6854 19.625 33.0558 19.625 32.2792C19.625 31.5025 18.9954 30.8729 18.2188 30.8729Z" fill="url(#paint2_linear_28_21)"/>
<path d="M18.8014 23.8418L16.8127 21.8531C16.2636 21.3039 15.3732 21.3039 14.824 21.8531C14.2748 22.4022 14.2748 23.2926 14.824 23.8418L16.8127 25.8305C17.3618 26.3797 18.2523 26.3798 18.8014 25.8305C19.3506 25.2813 19.3506 24.391 18.8014 23.8418Z" fill="url(#paint3_linear_28_21)"/>
<path d="M18.8014 38.7281C18.2523 38.1789 17.3618 38.1789 16.8127 38.7281L14.824 40.7168C14.2748 41.266 14.2748 42.1563 14.824 42.7055C15.3731 43.2547 16.2635 43.2548 16.8127 42.7055L18.8014 40.7168C19.3506 40.1676 19.3506 39.2772 18.8014 38.7281Z" fill="url(#paint4_linear_28_21)"/>
<path d="M60.5938 30.8729H57.7812C57.0046 30.8729 56.375 31.5025 56.375 32.2792C56.375 33.0558 57.0046 33.6854 57.7812 33.6854H60.5938C61.3704 33.6854 62 33.0558 62 32.2792C62 31.5025 61.3704 30.8729 60.5938 30.8729Z" fill="url(#paint5_linear_28_21)"/>
<path d="M61.1764 21.8531C60.6273 21.3039 59.7369 21.3039 59.1877 21.8531L57.199 23.8418C56.6498 24.391 56.6498 25.2813 57.199 25.8305C57.7481 26.3796 58.6385 26.3797 59.1877 25.8305L61.1764 23.8418C61.7256 23.2926 61.7256 22.4022 61.1764 21.8531Z" fill="url(#paint6_linear_28_21)"/>
<path d="M61.1764 40.7168L59.1877 38.7281C58.6386 38.1789 57.7482 38.1789 57.199 38.7281C56.6498 39.2772 56.6498 40.1676 57.199 40.7168L59.1877 42.7055C59.7368 43.2546 60.6273 43.2547 61.1764 42.7055C61.7256 42.1563 61.7256 41.266 61.1764 40.7168Z" fill="url(#paint7_linear_28_21)"/>
<defs>
<linearGradient id="paint0_linear_28_21" x1="40.1443" y1="32.2871" x2="40.1443" y2="19.6348" gradientUnits="userSpaceOnUse">
<stop stop-color="#3341F5"/>
<stop offset="1" stop-color="#5E69FF"/>
</linearGradient>
<linearGradient id="paint1_linear_28_21" x1="30.5966" y1="62.0279" x2="30.5966" y2="14.045" gradientUnits="userSpaceOnUse">
<stop stop-color="#3341F5"/>
<stop offset="1" stop-color="#5E69FF"/>
</linearGradient>
<linearGradient id="paint2_linear_28_21" x1="15.5785" y1="33.6872" x2="15.5785" y2="30.8756" gradientUnits="userSpaceOnUse">
<stop stop-color="#3341F5"/>
<stop offset="1" stop-color="#5E69FF"/>
</linearGradient>
<linearGradient id="paint3_linear_28_21" x1="15.7594" y1="26.2454" x2="15.7594" y2="21.4457" gradientUnits="userSpaceOnUse">
<stop stop-color="#3341F5"/>
<stop offset="1" stop-color="#5E69FF"/>
</linearGradient>
<linearGradient id="paint4_linear_28_21" x1="15.7594" y1="43.1204" x2="15.7594" y2="38.3207" gradientUnits="userSpaceOnUse">
<stop stop-color="#3341F5"/>
<stop offset="1" stop-color="#5E69FF"/>
</linearGradient>
<linearGradient id="paint5_linear_28_21" x1="57.9535" y1="33.6872" x2="57.9535" y2="30.8756" gradientUnits="userSpaceOnUse">
<stop stop-color="#3341F5"/>
<stop offset="1" stop-color="#5E69FF"/>
</linearGradient>
<linearGradient id="paint6_linear_28_21" x1="58.1344" y1="26.2454" x2="58.1344" y2="21.4457" gradientUnits="userSpaceOnUse">
<stop stop-color="#3341F5"/>
<stop offset="1" stop-color="#5E69FF"/>
</linearGradient>
<linearGradient id="paint7_linear_28_21" x1="58.1344" y1="43.1203" x2="58.1344" y2="38.3207" gradientUnits="userSpaceOnUse">
<stop stop-color="#3341F5"/>
<stop offset="1" stop-color="#5E69FF"/>
</linearGradient>
</defs>
</svg>
