<svg width="93" height="93" viewBox="0 0 93 93" fill="none" xmlns="http://www.w3.org/2000/svg">
<rect width="93" height="93" rx="15" fill="#3341F6" fill-opacity="0.1"/>
<path fill-rule="evenodd" clip-rule="evenodd" d="M29 24H37.1887C39.9501 24 42.1887 26.2386 42.1887 29V37.1887C42.1887 39.9501 39.9501 42.1887 37.1887 42.1887H29C26.2386 42.1887 24 39.9501 24 37.1887V29C24 26.2386 26.2386 24 29 24ZM22 29C22 25.134 25.134 22 29 22H37.1887C41.0547 22 44.1887 25.134 44.1887 29V37.1887C44.1887 41.0547 41.0547 44.1887 37.1887 44.1887H29C25.134 44.1887 22 41.0547 22 37.1887V29ZM55.8113 24H64C66.7614 24 69 26.2386 69 29V37.1887C69 39.9501 66.7614 42.1887 64 42.1887H55.8113C53.0499 42.1887 50.8113 39.9501 50.8113 37.1887V29C50.8113 26.2386 53.0499 24 55.8113 24ZM48.8113 29C48.8113 25.134 51.9453 22 55.8113 22H64C67.866 22 71 25.134 71 29V37.1887C71 41.0547 67.866 44.1887 64 44.1887H55.8113C51.9453 44.1887 48.8113 41.0547 48.8113 37.1887V29ZM22 55.8113C22 51.9453 25.134 48.8113 29 48.8113H37.1887C41.0547 48.8113 44.1887 51.9453 44.1887 55.8113V64C44.1887 67.866 41.0547 71 37.1887 71H29C25.134 71 22 67.866 22 64V55.8113ZM55.8113 50.8113H64C66.7614 50.8113 69 53.0499 69 55.8113V64C69 66.7614 66.7614 69 64 69H55.8113C53.0499 69 50.8113 66.7614 50.8113 64V55.8113C50.8113 53.0499 53.0499 50.8113 55.8113 50.8113ZM48.8113 55.8113C48.8113 51.9453 51.9453 48.8113 55.8113 48.8113H64C67.866 48.8113 71 51.9453 71 55.8113V64C71 67.866 67.866 71 64 71H55.8113C51.9453 71 48.8113 67.866 48.8113 64V55.8113Z" fill="url(#paint0_linear_35_63)"/>
<defs>
<linearGradient id="paint0_linear_35_63" x1="35.7503" y1="71.0307" x2="35.7503" y2="22.046" gradientUnits="userSpaceOnUse">
<stop stop-color="#3341F5"/>
<stop offset="1" stop-color="#5E69FF"/>
</linearGradient>
</defs>
</svg>
