<svg width="75" height="75" viewBox="0 0 75 75" fill="none" xmlns="http://www.w3.org/2000/svg">
<rect width="75" height="75" rx="10" fill="#3341F5" fill-opacity="0.1"/>
<path fill-rule="evenodd" clip-rule="evenodd" d="M41.8307 21.063C42.2015 20.18 43.2192 19.7655 44.1024 20.1352C44.9859 20.5062 45.4013 21.5234 45.0302 22.407L31.9792 53.4747C31.6428 54.2751 30.7762 54.6913 29.959 54.486C29.8743 54.4647 29.7906 54.4371 29.7075 54.4025C28.8239 54.0315 28.4087 53.0142 28.7796 52.1307L41.8307 21.063ZM26.6958 47.4133L17.1212 37.269L26.6958 27.1248C27.3534 26.4279 27.3216 25.3296 26.6247 24.6721C25.9284 24.0146 24.8295 24.0464 24.1721 24.7433L13.4732 36.0783C12.8423 36.7468 12.8423 37.7918 13.4732 38.4604L24.1726 49.796C24.5138 50.1575 24.9736 50.3396 25.4345 50.3396C25.8613 50.3396 26.2899 50.1823 26.6247 49.8659C27.3222 49.2084 27.3534 48.1102 26.6958 47.4133ZM60.8436 36.0788L50.1447 24.7438C49.4871 24.0464 48.3895 24.0146 47.6921 24.6727C46.9957 25.3302 46.9634 26.4284 47.6215 27.1253L57.1967 37.269L47.6215 47.4139C46.9634 48.1108 46.9957 49.2084 47.6921 49.8665C48.0275 50.1828 48.456 50.3395 48.8829 50.3395C49.3438 50.3395 49.8041 50.1568 50.1448 49.7965L60.8437 38.4609C61.4745 37.7918 61.4745 36.7473 60.8436 36.0788Z" fill="url(#paint0_linear_28_19)"/>
<defs>
<linearGradient id="paint0_linear_28_19" x1="26.5586" y1="54.5596" x2="26.5586" y2="20.0324" gradientUnits="userSpaceOnUse">
<stop stop-color="#3341F5"/>
<stop offset="1" stop-color="#5E69FF"/>
</linearGradient>
</defs>
</svg>
