<svg width="75" height="75" viewBox="0 0 75 75" fill="none" xmlns="http://www.w3.org/2000/svg">
<rect width="75" height="75" rx="10" fill="#3341F5" fill-opacity="0.1"/>
<path d="M38.9883 12.5614C38.3756 12.2133 37.6249 12.2133 37.0122 12.5614L17.012 23.925C16.3864 24.2804 16 24.9445 16 25.6639V48.336C16 49.0554 16.3864 49.7195 17.012 50.0749L37.0122 61.4386C37.6249 61.7867 38.3756 61.7867 38.9883 61.4386L58.988 50.0749C59.6136 49.7195 60 49.0554 60 48.336V25.6639C60 24.9445 59.6136 24.2804 58.988 23.925L38.9883 12.5614ZM55.5338 25.3456L38.4941 35.0231C38.1878 35.1971 37.8127 35.1971 37.5064 35.0231L20.4662 25.3456L37.5062 15.6638C37.8126 15.4897 38.1879 15.4897 38.4943 15.6638L55.5338 25.3456ZM18.9771 27.8825L36.0055 37.5535C36.3184 37.7312 36.5117 38.0633 36.5117 38.4231V57.7712L19.4831 48.0959C19.1703 47.9182 18.9771 47.5862 18.9771 47.2264V27.8825ZM39.4888 57.7712V38.423C39.4888 38.0632 39.6821 37.7312 39.995 37.5535L57.0229 27.8826V47.2265C57.0229 47.5863 56.8297 47.9183 56.5169 48.096L39.4888 57.7712Z" fill="url(#paint0_linear_28_20)"/>
<defs>
<linearGradient id="paint0_linear_28_20" x1="28.3472" y1="62.0313" x2="28.3472" y2="12.0469" gradientUnits="userSpaceOnUse">
<stop stop-color="#3341F5"/>
<stop offset="1" stop-color="#5E69FF"/>
</linearGradient>
</defs>
</svg>
