<svg width="35" height="35" viewBox="0 0 35 35" fill="none" xmlns="http://www.w3.org/2000/svg">
<rect width="35" height="35" rx="7.86125" fill="#3341F5" fill-opacity="0.1"/>
<path d="M26.1865 11.9589C25.6086 12.2078 25.0011 12.3812 24.3789 12.4747C24.6698 12.4247 25.0978 11.9007 25.2681 11.6886C25.527 11.3686 25.7242 11.0034 25.8499 10.6113C25.8499 10.5822 25.879 10.5406 25.8499 10.5198C25.8353 10.5118 25.8188 10.5076 25.8021 10.5076C25.7854 10.5076 25.769 10.5118 25.7543 10.5198C25.0787 10.886 24.3597 11.1655 23.6143 11.3517C23.5883 11.3596 23.5606 11.3603 23.5343 11.3537C23.5079 11.3471 23.4839 11.3335 23.4647 11.3142C23.4066 11.2451 23.3442 11.1798 23.2777 11.1188C22.9736 10.8461 22.6287 10.623 22.2554 10.4575C21.7516 10.2506 21.2074 10.161 20.6639 10.1954C20.1365 10.2288 19.6216 10.3703 19.1513 10.6113C18.6881 10.8654 18.281 11.2106 17.9545 11.6262C17.6111 12.0539 17.3631 12.5503 17.2273 13.0819C17.1153 13.5876 17.1026 14.1102 17.1899 14.6208C17.1899 14.7081 17.1899 14.7206 17.1151 14.7081C14.1522 14.2714 11.7213 13.2191 9.73497 10.9607C9.64771 10.8609 9.60199 10.8609 9.53135 10.9607C8.66701 12.275 9.08672 14.3546 10.1671 15.3819C10.3126 15.5192 10.4622 15.6523 10.6201 15.777C10.1247 15.7418 9.64145 15.6075 9.19891 15.3819C9.1158 15.3278 9.07009 15.357 9.06594 15.4568C9.05416 15.5952 9.05416 15.7343 9.06594 15.8727C9.15264 16.5359 9.41378 17.1642 9.82265 17.6933C10.2315 18.2223 10.7734 18.6332 11.393 18.8839C11.544 18.9487 11.7014 18.9975 11.8626 19.0295C11.404 19.1199 10.9336 19.1339 10.4705 19.0711C10.3708 19.0503 10.3334 19.1044 10.3708 19.2C10.9816 20.8637 12.3072 21.3711 13.2796 21.6539C13.4126 21.6747 13.5455 21.6747 13.6951 21.708C13.6951 21.708 13.6951 21.708 13.6702 21.733C13.3835 22.257 12.2241 22.6106 11.6922 22.7936C10.7213 23.1426 9.68623 23.276 8.6587 23.1845C8.49664 23.1596 8.45924 23.1637 8.41768 23.1845C8.37613 23.2053 8.41768 23.2511 8.46339 23.2927C8.67117 23.4299 8.87894 23.5505 9.09503 23.667C9.73831 24.0182 10.4184 24.2971 11.1229 24.4988C14.7714 25.5053 18.877 24.765 21.6155 22.0408C23.768 19.9029 24.5243 16.9541 24.5243 14.0011C24.5243 13.8888 24.6615 13.8222 24.7404 13.764C25.285 13.3393 25.7651 12.8377 26.1657 12.275C26.2351 12.1911 26.2707 12.0843 26.2655 11.9756V11.9756C26.2655 11.9132 26.2655 11.9256 26.1865 11.9589Z" fill="url(#paint0_linear_35_57)"/>
<defs>
<linearGradient id="paint0_linear_35_57" x1="13.4139" y1="24.9375" x2="13.4139" y2="10.2021" gradientUnits="userSpaceOnUse">
<stop stop-color="#3341F5"/>
<stop offset="1" stop-color="#5E69FF"/>
</linearGradient>
</defs>
</svg>
