<svg width="173" height="54" viewBox="0 0 173 54" fill="none" xmlns="http://www.w3.org/2000/svg">
<path d="M59.2705 26.1803C59.2205 24.9469 59.4152 23.7158 59.8434 22.558C60.2717 21.4002 60.9249 20.3386 61.7655 19.4346C62.6061 18.5306 63.6173 17.8019 64.741 17.2907C65.8646 16.7795 67.0783 16.4959 68.3121 16.4562H68.6955C73.464 16.4562 76.2784 19.2612 77.1106 22.5431L74.1466 23.5342C73.8803 22.3112 73.1832 21.2248 72.1825 20.4729C71.1818 19.7211 69.9442 19.3541 68.6955 19.4389C65.6099 19.4389 62.515 21.6922 62.515 26.2364C62.515 30.7806 65.5351 32.9498 68.7329 32.9498C69.9878 32.9841 71.218 32.5964 72.2266 31.8489C73.2352 31.1013 73.964 30.0371 74.2962 28.8264L77.2041 29.7614C76.7021 31.6082 75.5857 33.2288 74.0388 34.3558C72.492 35.4827 70.6072 36.0488 68.6955 35.9605C66.2394 36.0056 63.866 35.0736 62.0969 33.3694C60.3279 31.6651 59.3079 29.3282 59.2612 26.8722C59.2518 26.6478 59.2612 26.4141 59.2705 26.1803Z" fill="#6066D2" fill-opacity="0.2"/>
<path d="M82.9729 35.5305H79.9061V16.4001H82.9729V23.8802C83.4181 23.3522 83.9781 22.9328 84.6101 22.6541C85.242 22.3754 85.9293 22.2447 86.6195 22.272C89.7892 22.272 91.2945 24.5441 91.2945 27.3772V35.5305H88.3399V27.9195C88.4284 27.2707 88.2585 26.6131 87.8667 26.0884C87.475 25.5637 86.8927 25.2139 86.2455 25.1145C86.0621 25.0956 85.8772 25.0956 85.6938 25.1145C84.9846 25.1145 84.3044 25.3962 83.8029 25.8977C83.3014 26.3992 83.0197 27.0794 83.0197 27.7886C83.015 27.8664 83.015 27.9445 83.0197 28.0223L82.9729 35.5305Z" fill="#6066D2" fill-opacity="0.2"/>
<path d="M98.1762 28.1625L101.467 27.6482C102.215 27.5547 102.402 27.1714 102.402 26.7132C102.402 25.6286 101.673 24.759 99.9714 24.759C99.3287 24.7071 98.6915 24.9106 98.1979 25.3254C97.7043 25.7403 97.3941 26.333 97.3347 26.975V27.1153L94.5296 26.4888C94.7634 24.2635 96.783 22.2812 99.9434 22.2812C103.908 22.2812 105.413 24.5253 105.413 27.1433V33.5294C105.41 34.2214 105.463 34.9125 105.572 35.5958H102.767C102.666 35.0534 102.625 34.5015 102.646 33.9502C102.22 34.6055 101.63 35.1376 100.934 35.4937C100.238 35.8497 99.4616 36.0171 98.6811 35.9792C97.6151 36.0672 96.5576 35.7288 95.7408 35.0381C94.924 34.3475 94.4144 33.3611 94.3239 32.2952C94.3239 32.2298 94.3239 32.1643 94.3239 32.1082C94.2772 29.7426 95.9696 28.471 98.1762 28.1625ZM102.421 30.2289V29.6398L99.0645 30.1447C98.6088 30.1592 98.1763 30.3492 97.8575 30.675C97.5386 31.0008 97.358 31.4373 97.3534 31.8932C97.357 32.1191 97.4055 32.342 97.4962 32.5489C97.5869 32.7559 97.7178 32.9427 97.8815 33.0985C98.0451 33.2543 98.2381 33.3759 98.4492 33.4564C98.6604 33.5368 98.8854 33.5743 99.1112 33.5668H99.2515C99.6342 33.6069 100.021 33.5708 100.39 33.4607C100.758 33.3506 101.102 33.1687 101.4 32.9253C101.698 32.682 101.945 32.3821 102.127 32.0428C102.308 31.7036 102.421 31.3318 102.459 30.9488C102.472 30.7078 102.456 30.4661 102.412 30.2289H102.421Z" fill="#6066D2" fill-opacity="0.2"/>
<path d="M110.631 16.1383C110.894 16.1346 111.156 16.183 111.401 16.2807C111.645 16.3785 111.868 16.5236 112.057 16.7078C112.246 16.892 112.396 17.1116 112.499 17.3541C112.603 17.5965 112.657 17.857 112.66 18.1206C112.66 18.5151 112.543 18.9008 112.324 19.2292C112.106 19.5577 111.795 19.8141 111.431 19.9663C111.067 20.1186 110.666 20.1598 110.278 20.0848C109.891 20.0099 109.535 19.8221 109.254 19.545C108.973 19.268 108.78 18.9141 108.7 18.5278C108.619 18.1416 108.655 17.7401 108.802 17.3741C108.949 17.008 109.201 16.6936 109.527 16.4704C109.852 16.2472 110.236 16.1252 110.631 16.1196V16.1383ZM109.135 35.5866V22.6647H112.201V35.5305L109.135 35.5866Z" fill="#6066D2" fill-opacity="0.2"/>
<path d="M119.186 35.5304H116.129V22.6647H119.111V24.3757C119.5 23.7187 120.059 23.1784 120.728 22.8115C121.398 22.4447 122.154 22.2648 122.917 22.2907C126.059 22.2907 127.592 24.5627 127.592 27.3958V35.5304H124.534V27.9194C124.534 26.3393 123.814 25.0583 121.888 25.0583C121.532 25.0607 121.18 25.1333 120.852 25.2718C120.524 25.4104 120.227 25.6122 119.976 25.8657C119.726 26.1192 119.529 26.4195 119.395 26.7494C119.261 27.0794 119.193 27.4324 119.196 27.7885C119.196 27.8914 119.196 27.9942 119.196 28.0971L119.186 35.5304Z" fill="#6066D2" fill-opacity="0.2"/>
<path d="M131.294 35.5305V16.4001H134.361V35.5305H131.294Z" fill="#6066D2" fill-opacity="0.2"/>
<path d="M139.831 16.1383C140.226 16.1365 140.612 16.2519 140.941 16.4701C141.27 16.6882 141.527 16.9991 141.679 17.3634C141.831 17.7277 141.871 18.1289 141.794 18.5161C141.718 18.9033 141.528 19.259 141.249 19.5381C140.97 19.8172 140.614 20.0071 140.227 20.0836C139.84 20.1602 139.438 20.12 139.074 19.9681C138.71 19.8162 138.399 19.5595 138.181 19.2305C137.963 18.9016 137.847 18.5152 137.849 18.1206C137.854 17.5963 138.064 17.095 138.435 16.7243C138.806 16.3536 139.307 16.1432 139.831 16.1383ZM138.326 35.5866V22.6647H141.365V35.5305L138.326 35.5866Z" fill="#6066D2" fill-opacity="0.2"/>
<path d="M148.396 35.5304H145.329V22.6646H148.312V24.3757C148.701 23.7193 149.26 23.1796 149.929 22.8128C150.599 22.446 151.354 22.2657 152.117 22.2906C155.259 22.2906 156.792 24.5627 156.792 27.3958V35.5304H153.726V27.9194C153.814 27.2706 153.644 26.6129 153.252 26.0882C152.861 25.5635 152.278 25.2138 151.631 25.1143C151.445 25.0956 151.257 25.0956 151.07 25.1143C150.356 25.1217 149.673 25.4107 149.171 25.9184C148.668 26.4261 148.387 27.1116 148.387 27.8259C148.377 27.9347 148.377 28.0443 148.387 28.1531L148.396 35.5304Z" fill="#6066D2" fill-opacity="0.2"/>
<path d="M167.255 28.0971L172.65 35.5772H168.91L165.17 30.2757L163.59 31.94V35.5305H160.551V16.4001H163.59V27.8634L168.527 22.6647H172.594L167.255 28.0971Z" fill="#6066D2" fill-opacity="0.2"/>
<path d="M22.9639 11.2201L36.2224 18.8311V34.1279L23.0013 41.7857L9.75218 34.1934V18.9059L22.9639 11.2201ZM22.9639 0L18.1018 2.80504L4.86206 10.4908L0 13.2959V39.8222L4.86206 42.6272L18.1205 50.2382L22.9826 53.0432L27.8447 50.2382L41.0564 42.5711L45.9184 39.7661V13.2024L41.0564 10.3973L27.8073 2.80504L22.9452 0H22.9639Z" fill="#6066D2" fill-opacity="0.2"/>
</svg>
