<svg width="93" height="93" viewBox="0 0 93 93" fill="none" xmlns="http://www.w3.org/2000/svg">
<rect width="93" height="93" rx="15" fill="#3341F6" fill-opacity="0.1"/>
<path d="M68.9296 54.6324C69.9133 53.3777 70.3851 52.0326 70.3249 50.6474C70.2647 49.1217 69.5821 47.9272 69.02 47.1945C69.6724 45.5684 69.9234 43.0088 67.7452 41.0213C66.1492 39.5659 63.4391 38.9134 59.685 39.0941C57.0451 39.2146 54.8368 39.7064 54.7465 39.7265H54.7364C54.2345 39.8168 53.7025 39.9272 53.1605 40.0477C53.1204 39.4053 53.2308 37.8093 54.4152 34.2158C55.8205 29.9398 55.7402 26.6675 54.1542 24.4793C52.488 22.1807 49.828 22 49.0451 22C48.2923 22 47.5997 22.3112 47.1078 22.8833C45.9936 24.1782 46.1241 26.5671 46.2647 27.6713C44.9397 31.2246 41.2258 39.9373 38.084 42.3563C38.0237 42.3965 37.9736 42.4467 37.9234 42.4969C36.9999 43.4705 36.3776 44.5245 35.956 45.4479C35.3638 45.1267 34.6913 44.946 33.9685 44.946H27.8456C25.5369 44.946 23.6699 46.8231 23.6699 49.1217V65.4329C23.6699 67.7415 25.547 69.6085 27.8456 69.6085H33.9685C34.8619 69.6085 35.695 69.3275 36.3776 68.8457L38.7364 69.1267C39.0978 69.1769 45.5219 69.99 52.1166 69.8595C53.3111 69.9498 54.4353 70 55.4792 70C57.2759 70 58.8418 69.8595 60.1467 69.5784C63.2182 68.926 65.3161 67.6211 66.3801 65.7039C67.1931 64.2384 67.1931 62.7829 67.0626 61.8595C69.0601 60.0527 69.4115 58.0552 69.3412 56.6499C69.301 55.8369 69.1204 55.1443 68.9296 54.6324ZM27.8456 66.8984C27.0325 66.8984 26.3801 66.2359 26.3801 65.4329V49.1117C26.3801 48.2986 27.0426 47.6462 27.8456 47.6462H33.9685C34.7816 47.6462 35.434 48.3087 35.434 49.1117V65.4228C35.434 66.2359 34.7716 66.8883 33.9685 66.8883H27.8456V66.8984ZM66.36 53.458C65.9384 53.8996 65.8581 54.5721 66.1793 55.0941C66.1793 55.1041 66.5909 55.8068 66.6411 56.7704C66.7113 58.0853 66.079 59.2497 64.754 60.2434C64.2822 60.6048 64.0915 61.2271 64.2923 61.7892C64.2923 61.7992 64.7239 63.1242 64.0212 64.3789C63.3487 65.5834 61.8531 66.4467 59.5846 66.9285C57.7678 67.32 55.2985 67.3902 52.2672 67.1493C52.227 67.1493 52.1768 67.1493 52.1266 67.1493C45.6724 67.2898 39.148 66.4467 39.0777 66.4366H39.0677L38.0539 66.3162C38.1141 66.0351 38.1442 65.734 38.1442 65.4329V49.1117C38.1442 48.6801 38.0739 48.2585 37.9535 47.867C38.1342 47.1945 38.636 45.6989 39.8205 44.4241C44.3274 40.8507 48.7339 28.7955 48.9246 28.2735C49.0049 28.0627 49.025 27.8319 48.9849 27.601C48.8142 26.4768 48.8744 25.1016 49.1153 24.6901C49.6473 24.7001 51.0827 24.8507 51.946 26.0452C52.9698 27.4605 52.9296 29.99 51.8255 33.3425C50.1392 38.4517 49.9987 41.1418 51.3337 42.3262C51.9961 42.9184 52.8795 42.9486 53.5219 42.7177C54.1342 42.5772 54.7163 42.4567 55.2684 42.3664C55.3086 42.3563 55.3588 42.3463 55.3989 42.3363C58.4805 41.6637 64.0012 41.2522 65.9184 42.9987C67.5445 44.4843 66.3901 46.4517 66.2596 46.6625C65.8882 47.2246 65.9987 47.9573 66.5005 48.409C66.5106 48.4191 67.5645 49.4128 67.6147 50.7478C67.6549 51.6412 67.2333 52.5546 66.36 53.458Z" fill="url(#paint0_linear_31_29)"/>
<defs>
<linearGradient id="paint0_linear_31_29" x1="36.7636" y1="70.03" x2="36.7636" y2="22.045" gradientUnits="userSpaceOnUse">
<stop stop-color="#3341F5"/>
<stop offset="1" stop-color="#5E69FF"/>
</linearGradient>
</defs>
</svg>
