<svg width="35" height="35" viewBox="0 0 35 35" fill="none" xmlns="http://www.w3.org/2000/svg">
<rect width="35" height="35" rx="7.86125" fill="#3341F5" fill-opacity="0.1"/>
<path d="M27.2346 12.6858C27.0061 11.8267 26.3301 11.149 25.47 10.9167C23.9149 10.4999 17.6754 10.4999 17.6754 10.4999C17.6754 10.4999 11.439 10.4999 9.88072 10.9167C9.02382 11.1458 8.34782 11.8235 8.11614 12.6858C7.70038 14.2449 7.70038 17.4999 7.70038 17.4999C7.70038 17.4999 7.70038 20.7549 8.11614 22.314C8.34464 23.1731 9.02065 23.8508 9.88072 24.0831C11.439 24.4999 17.6754 24.4999 17.6754 24.4999C17.6754 24.4999 23.9149 24.4999 25.47 24.0831C26.3269 23.854 27.0029 23.1762 27.2346 22.314C27.6504 20.7549 27.6504 17.4999 27.6504 17.4999C27.6504 17.4999 27.6504 14.2449 27.2346 12.6858Z" fill="url(#paint0_linear_35_62)"/>
<path d="M15.6823 20.5003L20.865 17.4999L15.6823 14.4994V20.5003Z" fill="#EBECFE"/>
<defs>
<linearGradient id="paint0_linear_35_62" x1="13.2987" y1="24.5086" x2="13.2987" y2="10.513" gradientUnits="userSpaceOnUse">
<stop stop-color="#3341F5"/>
<stop offset="1" stop-color="#5E69FF"/>
</linearGradient>
</defs>
</svg>
