<svg width="93" height="93" viewBox="0 0 93 93" fill="none" xmlns="http://www.w3.org/2000/svg">
<rect width="93" height="93" rx="15" fill="#3341F6" fill-opacity="0.1"/>
<path fill-rule="evenodd" clip-rule="evenodd" d="M71.5448 38.6369V46.2265C72.9702 46.7348 73.9993 48.0843 73.9993 49.6822V57.0457C73.9993 58.6436 72.9702 59.9931 71.5448 60.5014V68.091C71.5448 70.7984 69.3431 73 66.6357 73H24.9091C22.2016 73 20 70.7983 20 68.091V38.6369C20 35.9294 22.2017 33.7278 24.9091 33.7278H29.1527L53.3146 19.6612C54.4388 19.0069 55.7522 18.8306 57.0083 19.1662C58.2703 19.5042 59.325 20.3179 59.9782 21.4565L67.0265 33.7674C69.5486 33.9704 71.5448 36.0633 71.5448 38.6369ZM53.4776 33.7278H64.1744L61.5003 29.0571L53.4776 33.7278ZM48.5994 33.7278L60.2808 26.9271L59.0693 24.8111L43.7541 33.7278H48.5994ZM56.3731 21.5368C55.7534 21.3714 55.105 21.4577 54.5501 21.7825L34.031 33.7278H38.8761L57.8498 22.6811L57.8473 22.6766C57.5225 22.1097 56.9999 21.7046 56.3731 21.5368ZM66.6357 70.5454C67.9888 70.5454 69.0902 69.444 69.0902 68.091V60.7275H61.7267C57.6662 60.7275 54.3632 57.4244 54.3632 53.3639C54.3632 49.3034 57.6662 46.0004 61.7267 46.0004H69.0902V38.6369C69.0902 37.2838 67.9888 36.1824 66.6357 36.1824H24.9091C23.556 36.1824 22.4546 37.2838 22.4546 38.6369V68.091C22.4546 69.444 23.556 70.5454 24.9091 70.5454H66.6357ZM70.3175 58.273C70.9947 58.273 71.5448 57.7228 71.5448 57.0457V49.6822C71.5448 49.005 70.9946 48.4549 70.3175 48.4549H61.7267C59.0192 48.4549 56.8176 50.6566 56.8176 53.3639C56.8176 56.0714 59.0193 58.273 61.7267 58.273H70.3175ZM59.2721 53.3639C59.2721 52.0109 60.3735 50.9095 61.7265 50.9095C63.0797 50.9095 64.1811 52.0109 64.181 53.3639C64.181 54.717 63.0796 55.8184 61.7265 55.8184C60.3735 55.8184 59.2721 54.717 59.2721 53.3639Z" fill="url(#paint0_linear_31_27)"/>
<defs>
<linearGradient id="paint0_linear_31_27" x1="35.1532" y1="73.0338" x2="35.1532" y2="19.0507" gradientUnits="userSpaceOnUse">
<stop stop-color="#3341F5"/>
<stop offset="1" stop-color="#5E69FF"/>
</linearGradient>
</defs>
</svg>
