<svg width="35" height="35" viewBox="0 0 35 35" fill="none" xmlns="http://www.w3.org/2000/svg">
<rect width="35" height="35" rx="7.86125" fill="#3341F5" fill-opacity="0.1"/>
<path d="M26.2499 17.6602C26.2525 17.8386 26.2302 18.0167 26.1829 18.1889C26.1356 18.3611 26.064 18.5261 25.9701 18.6785C25.8765 18.8308 25.7615 18.9695 25.6288 19.0903C25.4962 19.2111 25.347 19.3126 25.1858 19.3921C25.1894 19.4396 25.1924 19.4874 25.194 19.5353C25.1979 19.6307 25.1979 19.7263 25.194 19.8218C25.1924 19.8696 25.1894 19.9175 25.1858 19.965C25.1858 22.8818 21.7569 25.2517 17.5266 25.2517C13.2964 25.2517 9.86752 22.8818 9.86752 19.965C9.8639 19.9175 9.86095 19.8696 9.8593 19.8218C9.85535 19.7263 9.85535 19.6307 9.8593 19.5353C9.86095 19.4874 9.8639 19.4396 9.86752 19.3921C9.61487 19.277 9.39047 19.1088 9.20985 18.8993C9.02923 18.6897 8.89671 18.4438 8.82145 18.1785C8.74631 17.913 8.7303 17.6346 8.77454 17.3624C8.81877 17.0902 8.92219 16.8308 9.07763 16.6022C9.23292 16.3736 9.43654 16.1813 9.67434 16.0385C9.91214 15.8957 10.1784 15.8059 10.4548 15.7754C10.7311 15.7447 11.0109 15.7739 11.2747 15.861C11.5385 15.9481 11.7801 16.0911 11.9826 16.2799C12.3586 16.0273 12.7526 15.802 13.1614 15.6058C13.5703 15.4098 13.993 15.2431 14.4262 15.1077C14.8594 14.9723 15.3021 14.8684 15.7505 14.7965C16.1988 14.7245 16.652 14.6851 17.1063 14.6783L18.0784 10.1599C18.0893 10.1075 18.1106 10.058 18.1412 10.0137C18.1714 9.96976 18.2105 9.932 18.2554 9.90303C18.3008 9.87405 18.3514 9.8542 18.4046 9.84443C18.4574 9.83499 18.512 9.83597 18.5645 9.84736L21.7832 10.4854C22.108 9.93232 22.7898 9.69533 23.3919 9.92581C23.9939 10.1563 24.3381 10.7862 24.2034 11.4119C24.0691 12.0376 23.4956 12.4738 22.8513 12.4409C22.2065 12.408 21.6814 11.9158 21.6124 11.2797L18.801 10.6938L17.947 14.7564C18.3957 14.7659 18.8433 14.8075 19.2861 14.8808C20.1727 15.0273 21.0333 15.2998 21.8413 15.6901C22.2449 15.8847 22.6338 16.108 23.005 16.3581C23.2719 16.1041 23.6072 15.9321 23.9706 15.8629C24.3339 15.7935 24.7098 15.8298 25.0528 15.9674C25.3958 16.105 25.6913 16.338 25.9037 16.6384C26.1162 16.9387 26.2364 17.2936 26.2499 17.6602V17.6602ZM13.2123 19.4608C13.2787 19.6186 13.3752 19.7622 13.4974 19.883C13.6192 20.0041 13.7641 20.0998 13.9234 20.1655C14.0828 20.2309 14.2537 20.2645 14.4262 20.2645C14.9576 20.2645 15.4365 19.9471 15.6401 19.4608C15.8434 18.9741 15.7308 18.4142 15.355 18.0417C14.9793 17.6693 14.4144 17.5577 13.9234 17.7592C13.4327 17.961 13.1125 18.4356 13.1125 18.9624C13.1125 19.1333 13.1463 19.3025 13.2123 19.4608V19.4608ZM20.7368 22.5865C20.8041 22.5214 20.8425 22.4326 20.8439 22.3395C20.8452 22.246 20.8087 22.1562 20.743 22.0894C20.6773 22.0227 20.5877 21.9846 20.4937 21.9833C20.3995 21.982 20.3088 22.0182 20.233 22.0745C20.0354 22.2149 19.8262 22.3385 19.6076 22.444C19.389 22.5495 19.1618 22.6365 18.9284 22.7041C18.6952 22.7714 18.4565 22.8193 18.2151 22.847C17.9733 22.8746 17.73 22.8818 17.4872 22.8688C17.2449 22.8795 17.0018 22.8698 16.7611 22.8398C16.5203 22.8102 16.2825 22.7601 16.0503 22.6901C15.8178 22.6204 15.5922 22.5312 15.3751 22.4238C15.158 22.3163 14.9504 22.1907 14.7546 22.0484C14.6867 21.9931 14.6003 21.9648 14.5123 21.969C14.4242 21.9732 14.3411 22.01 14.2787 22.0715C14.2167 22.1334 14.1796 22.2158 14.1753 22.303C14.171 22.3902 14.1996 22.4759 14.2554 22.5432C14.4863 22.7158 14.7317 22.8681 14.9888 22.999C15.246 23.1299 15.5143 23.2383 15.7902 23.3236C16.0661 23.4088 16.3489 23.4704 16.6356 23.5078C16.9223 23.5449 17.2117 23.5576 17.5004 23.5459C17.7891 23.5576 18.0784 23.5449 18.3651 23.5078C18.9394 23.4329 19.4965 23.2608 20.0119 22.999C20.2691 22.8681 20.5144 22.7158 20.7453 22.5432L20.7368 22.5865ZM20.4957 20.3687C20.6737 20.3706 20.8504 20.3364 21.015 20.2687C21.1795 20.2007 21.3283 20.1004 21.4524 19.9738C21.5766 19.8472 21.6732 19.6968 21.7369 19.5317C21.8006 19.3669 21.8298 19.1908 21.8226 19.0144C21.8226 18.4877 21.5024 18.0131 21.0117 17.8113C20.5207 17.6098 19.9558 17.7214 19.58 18.0938C19.2043 18.4662 19.0916 19.0262 19.295 19.5128C19.4986 19.9992 19.9774 20.3166 20.5089 20.3166L20.4957 20.3687Z" fill="url(#paint0_linear_35_60)"/>
<defs>
<linearGradient id="paint0_linear_35_60" x1="13.6609" y1="25.2613" x2="13.6609" y2="9.85247" gradientUnits="userSpaceOnUse">
<stop stop-color="#3341F5"/>
<stop offset="1" stop-color="#5E69FF"/>
</linearGradient>
</defs>
</svg>
