<svg width="93" height="93" viewBox="0 0 93 93" fill="none" xmlns="http://www.w3.org/2000/svg">
<rect width="93" height="93" rx="15" fill="#3341F6" fill-opacity="0.1"/>
<path d="M38.7163 43.2537C38.1359 42.6205 37.1334 42.5678 36.5002 43.1482C35.8671 43.7286 35.8143 44.7311 36.3947 45.3642L44.362 54.0175C44.6786 54.3341 45.048 54.5451 45.4701 54.5451C45.4701 54.5451 45.4701 54.5451 45.5228 54.5451C45.9449 54.5451 46.367 54.3868 46.6309 54.0702L66.7866 33.9673C67.4198 33.3341 67.4198 32.3316 66.7866 31.7512C66.1534 31.1708 65.1509 31.118 64.5705 31.7512L45.5756 50.6934L38.7163 43.2537Z" fill="url(#paint0_linear_31_30)"/>
<path d="M66.417 45.417C65.52 45.417 64.8341 46.103 64.8341 47C64.8341 56.814 56.814 64.8341 47 64.8341C37.1859 64.8341 29.1658 56.814 29.1658 47C29.1658 37.1859 37.1859 29.1658 47 29.1658C47.8969 29.1658 48.5829 28.4799 48.5829 27.5829C48.5829 26.6859 47.8969 26 47 26C35.4447 26 26 35.4447 26 47C26 58.5552 35.4447 67.9999 47 67.9999C58.5552 67.9999 67.9999 58.5552 67.9999 47C67.9999 46.103 67.314 45.417 66.417 45.417Z" fill="url(#paint1_linear_31_30)"/>
<defs>
<linearGradient id="paint0_linear_31_30" x1="44.7657" y1="54.5597" x2="44.7657" y2="31.3177" gradientUnits="userSpaceOnUse">
<stop stop-color="#3341F5"/>
<stop offset="1" stop-color="#5E69FF"/>
</linearGradient>
<linearGradient id="paint1_linear_31_30" x1="37.7859" y1="68.0262" x2="37.7859" y2="26.0394" gradientUnits="userSpaceOnUse">
<stop stop-color="#3341F5"/>
<stop offset="1" stop-color="#5E69FF"/>
</linearGradient>
</defs>
</svg>
