<svg width="35" height="35" viewBox="0 0 35 35" fill="none" xmlns="http://www.w3.org/2000/svg">
<rect width="35" height="35" rx="7.86125" fill="#3341F5" fill-opacity="0.1"/>
<path d="M23.8812 11.7635C25.9436 14.8172 26.9621 18.2617 26.5813 22.2271C26.5797 22.2438 26.5711 22.2592 26.5574 22.2694C24.9956 23.4243 23.4825 24.1252 21.9906 24.59C21.9789 24.5935 21.9665 24.5933 21.955 24.5894C21.9435 24.5855 21.9335 24.578 21.9264 24.5681C21.5817 24.0852 21.2686 23.576 20.9942 23.0413C20.9784 23.0098 20.9928 22.9719 21.0252 22.9594C21.5226 22.7707 21.9956 22.5445 22.4505 22.2767C22.4863 22.2556 22.4886 22.2038 22.4555 22.179C22.359 22.1068 22.2633 22.031 22.1718 21.9551C22.1547 21.9411 22.1316 21.9383 22.1122 21.9478C19.1588 23.3213 15.9234 23.3213 12.935 21.9478C12.9156 21.939 12.8925 21.942 12.8759 21.9558C12.7846 22.0317 12.6887 22.1068 12.5931 22.179C12.56 22.2038 12.5627 22.2556 12.5988 22.2767C13.0537 22.5395 13.5267 22.7707 14.0233 22.9604C14.0555 22.9728 14.0708 23.0098 14.0548 23.0413C13.7864 23.5767 13.4732 24.0858 13.1222 24.5688C13.1069 24.5884 13.0818 24.5973 13.058 24.59C11.5732 24.1252 10.0601 23.4243 8.4983 22.2694C8.48529 22.2592 8.47593 22.2432 8.47456 22.2264C8.15637 18.7964 8.80486 15.3234 11.1721 11.7628C11.1779 11.7534 11.1865 11.7461 11.1966 11.7417C12.3614 11.2033 13.6093 10.8072 14.9136 10.581C14.9373 10.5774 14.961 10.5884 14.9734 10.6096C15.1345 10.8969 15.3187 11.2654 15.4434 11.5665C16.8182 11.355 18.2144 11.355 19.618 11.5665C19.7426 11.2718 19.9205 10.8969 20.0809 10.6096C20.0866 10.5991 20.0955 10.5907 20.1062 10.5855C20.117 10.5804 20.1291 10.5788 20.1407 10.581C21.4457 10.8079 22.6936 11.204 23.8575 11.7417C23.8678 11.7461 23.8762 11.7534 23.8812 11.7635V11.7635ZM16.1423 18.2851C16.1567 17.2711 15.4226 16.4321 14.5011 16.4321C13.5871 16.4321 12.8601 17.2638 12.8601 18.2851C12.8601 19.3062 13.6015 20.1379 14.5011 20.1379C15.4153 20.1379 16.1423 19.3062 16.1423 18.2851V18.2851ZM22.2099 18.2851C22.2243 17.2711 21.4902 16.4321 20.5689 16.4321C19.6548 16.4321 18.9278 17.2638 18.9278 18.2851C18.9278 19.3062 19.6691 20.1379 20.5689 20.1379C21.4902 20.1379 22.2099 19.3062 22.2099 18.2851V18.2851Z" fill="url(#paint0_linear_35_59)"/>
<defs>
<linearGradient id="paint0_linear_35_59" x1="13.5234" y1="24.6013" x2="13.5234" y2="10.5932" gradientUnits="userSpaceOnUse">
<stop stop-color="#3341F5"/>
<stop offset="1" stop-color="#5E69FF"/>
</linearGradient>
</defs>
</svg>
