<svg width="35" height="35" viewBox="0 0 35 35" fill="none" xmlns="http://www.w3.org/2000/svg">
<rect width="35" height="35" rx="7.86125" fill="#3341F5" fill-opacity="0.1"/>
<path d="M9.73712 16.8799C9.73712 16.8799 16.8578 13.8809 19.3273 12.8248C20.274 12.4024 23.4845 11.0507 23.4845 11.0507C23.4845 11.0507 24.9663 10.4593 24.8428 11.8955C24.8016 12.4869 24.4723 14.5567 24.143 16.7955C23.6491 19.9636 23.114 23.4273 23.114 23.4273C23.114 23.4273 23.0317 24.3989 22.332 24.5679C21.6323 24.7368 20.4798 23.9765 20.274 23.8075C20.1093 23.6808 17.187 21.7799 16.1169 20.8506C15.8288 20.5972 15.4995 20.0903 16.158 19.4989C17.6398 18.105 19.4096 16.3731 20.4798 15.2748C20.9737 14.7679 21.4676 13.5852 19.4096 15.0213C16.4873 17.0912 13.6061 19.0343 13.6061 19.0343C13.6061 19.0343 12.9476 19.4567 11.7128 19.0765C10.478 18.6964 9.03736 18.1894 9.03736 18.1894C9.03736 18.1894 8.04959 17.5558 9.73712 16.8799Z" fill="url(#paint0_linear_35_58)"/>
<defs>
<linearGradient id="paint0_linear_35_58" x1="13.268" y1="24.6007" x2="13.268" y2="10.9429" gradientUnits="userSpaceOnUse">
<stop stop-color="#3341F5"/>
<stop offset="1" stop-color="#5E69FF"/>
</linearGradient>
</defs>
</svg>
