<?xml version="1.0" encoding="utf-8"?>
<svg viewBox="250.978 281.503 75 75" width="75" height="75" xmlns="http://www.w3.org/2000/svg">
  <rect width="75" height="75" rx="10" fill="#3341F5" fill-opacity="0.1" transform="matrix(1, 0, 0, 1, 250.978081, 281.502602)"/>
  <g id="Liquidity" transform="matrix(0.78028, 0, 0, 0.78028, 263.079231, 293.700479)" style="">
    <path d="m26 32a1 1 0 0 0 1 1h10a1 1 0 0 0 0-2h-10a1 1 0 0 0 -1 1z" style="fill: rgb(79, 91, 252);"/>
    <path d="m36.35 29 1.29-4.8-5.5.79a1.31 1.31 0 0 1 -.28 0l-5.5-.79 1.29 4.8z" style="fill: rgb(79, 91, 252);"/>
    <path d="m36.64 35h-9.28c-4.01 3.23-7.36 10-7.36 15v4c0 4.26 3.27 8 7 8h10c3.73 0 7-3.74 7-8v-4c0-5-3.35-11.77-7.36-15zm-3.64 22v2h-2v-2h-4v-2h6a3 3 0 0 0 0-6h-2a5 5 0 0 1 0-10v-2h2v2h4v2h-6a3 3 0 0 0 0 6h2a5 5 0 0 1 0 10z" style="fill: rgb(79, 91, 252);"/>
    <path d="m38.92 9.38a.987.987 0 0 1 -.92.62h-2v7a1 1 0 0 1 -1 1h-6a1 1 0 0 1 -1-1v-7h-2a.987.987 0 0 1 -.92-.62 1 1 0 0 1 .21-1.09l6-6a1.008 1.008 0 0 1 1.42 0l6 6a1 1 0 0 1 .21 1.09z" style="fill: rgb(79, 91, 252);"/>
    <path d="m24.02 18.78a1.007 1.007 0 0 1 -.29.71l-4.24 4.24a1.042 1.042 0 0 1 -.71.29 1.024 1.024 0 0 1 -.71-.29l-4.95-4.95-1.41 1.41a1 1 0 0 1 -1.71-.7v-8.49a1 1 0 0 1 1-1h8.49a1 1 0 0 1 .7 1.71l-1.41 1.41 4.95 4.95a.99.99 0 0 1 .29.71z" style="fill: rgb(79, 91, 252);"/>
    <path d="m18 29v6a1 1 0 0 1 -1 1h-7v2a.987.987 0 0 1 -.62.92.838.838 0 0 1 -.38.08 1.007 1.007 0 0 1 -.71-.29l-6-6a1.008 1.008 0 0 1 0-1.42l6-6a1 1 0 0 1 1.09-.21.987.987 0 0 1 .62.92v2h7a1 1 0 0 1 1 1z" style="fill: rgb(79, 91, 252);"/>
    <path d="m54 11v8.49a1 1 0 0 1 -1.71.7l-1.41-1.41-4.95 4.95a1.024 1.024 0 0 1 -.71.29 1.042 1.042 0 0 1 -.71-.29l-4.24-4.24a1.007 1.007 0 0 1 -.29-.71.99.99 0 0 1 .29-.71l4.95-4.95-1.41-1.41a1 1 0 0 1 .7-1.71h8.49a1 1 0 0 1 1 1z" style="fill: rgb(79, 91, 252);"/>
    <path d="m61.71 32.71-6 6a1.007 1.007 0 0 1 -.71.29.838.838 0 0 1 -.38-.08.987.987 0 0 1 -.62-.92v-2h-7a1 1 0 0 1 -1-1v-6a1 1 0 0 1 1-1h7v-2a.987.987 0 0 1 .62-.92 1 1 0 0 1 1.09.21l6 6a1.008 1.008 0 0 1 0 1.42z" style="fill: rgb(79, 91, 252);"/>
  </g>
</svg>