<svg width="179" height="25" viewBox="0 0 179 25" fill="none" xmlns="http://www.w3.org/2000/svg">
<path d="M17.5479 6.49593C19.7525 8.70058 20.7357 11.1436 20.7357 14.3016C20.7357 20.4389 16.2668 24.6993 9.89117 24.6993H3.63471L0 21.0645V0.299047H6.37563C9.80179 0.299047 12.6619 1.52055 14.6282 3.57624L17.5479 6.49593ZM3.45595 3.57624H3.42616V4.32106L6.5246 7.38971V6.64489L3.45595 3.57624ZM7.03107 6.55551L4.05181 3.57624H3.63471L6.61398 6.55551H7.03107ZM8.07382 6.55551L5.09455 3.57624H4.26035L7.23962 6.55551H8.07382ZM6.40543 3.57624H5.3031L8.28237 6.55551H9.3847L6.40543 3.57624ZM10.4572 6.55551L7.53755 3.63583C7.23962 3.60603 6.9417 3.57624 6.61398 3.57624L9.59324 6.55551H9.89117C10.0699 6.55551 10.2785 6.55551 10.4572 6.55551ZM11.3808 6.64489L8.5505 3.81458C8.31216 3.755 8.04402 3.72521 7.77589 3.66562L10.6658 6.55551C10.9041 6.5853 11.1723 6.6151 11.3808 6.64489ZM12.2448 6.85344L9.47407 4.08272C9.26552 4.02313 9.05698 3.93375 8.81863 3.87417L11.6489 6.70447C11.8575 6.76406 12.0362 6.79385 12.2448 6.85344ZM12.5427 6.97261C12.7215 7.06199 12.93 7.15136 13.1088 7.24074L10.4274 4.5594C10.2487 4.47002 10.0401 4.35085 9.83159 4.26147L12.5427 6.97261ZM3.39637 10.071L3.93263 10.6073L3.81346 10.7265L3.39637 10.3094V17.9661H6.49481V7.59825L3.39637 4.52961V5.24463L6.34584 8.19411L6.22667 8.28349L3.39637 5.45318V6.198L5.83937 8.67079L5.74999 8.78996L3.39637 6.43634V7.18116L5.36268 9.17727L5.2733 9.29644L3.39637 7.4195V8.16432L4.886 9.68374L4.79662 9.80291L3.39637 8.40266V9.17727L4.40932 10.1902L4.29015 10.3094L3.39637 9.41561V10.071ZM12.9002 6.79385C12.3938 6.01924 11.7383 5.3638 10.9637 4.85733L12.9002 6.79385ZM17.25 6.76406L16.0583 5.54256C16.8329 7.03219 17.3691 8.84955 17.3691 10.7563C17.3691 10.9648 17.3691 11.1734 17.3691 11.3521L20.3484 14.3612V14.3016C20.3186 11.233 19.3355 8.90913 17.25 6.76406ZM6.9119 17.9661C11.1723 17.7278 13.9132 14.9273 13.9132 10.7861C13.9132 9.71353 13.7344 8.70058 13.3769 7.8366C12.4831 7.21095 11.4702 6.97261 9.89117 6.97261H6.9119V17.9661ZM16.7435 14.5102L19.8419 17.6086C20.1399 16.6552 20.3186 15.6423 20.3484 14.5399L17.3393 11.5309C17.25 12.6332 17.0414 13.5866 16.7435 14.5102ZM19.7823 17.7576L16.6839 14.6591C16.4158 15.4039 16.0583 16.0892 15.6412 16.685L18.7694 19.843C19.1865 19.2174 19.5142 18.5024 19.7823 17.7576ZM17.4883 21.4221C17.9352 20.9752 18.3225 20.4985 18.68 19.9622L15.5518 16.834C15.1943 17.3405 14.7772 17.8171 14.3005 18.264L17.4883 21.4221ZM12.93 19.3366L16.1178 22.5244C16.5647 22.2265 16.9818 21.8689 17.3989 21.5114L14.2111 18.3236C13.794 18.7109 13.3769 19.0386 12.93 19.3366ZM11.5 20.1112L14.6878 23.299C15.1347 23.0904 15.5518 22.8521 15.9689 22.6138L12.7811 19.4259C12.3938 19.6941 11.9767 19.9026 11.5 20.1112ZM10.1295 20.6177L13.3173 23.8055C13.7344 23.6863 14.1515 23.5373 14.5686 23.3586L11.3808 20.1708C10.9637 20.3495 10.5764 20.4985 10.1295 20.6177ZM8.81863 20.9454L11.9767 24.1332C12.3938 24.0736 12.7811 23.9842 13.1684 23.8651L10.0103 20.707C9.62304 20.7964 9.20594 20.8858 8.81863 20.9454ZM8.61009 20.9752C8.25257 21.0348 7.89506 21.0943 7.53755 21.1241L10.6658 24.2524C11.0531 24.2524 11.4106 24.1928 11.7681 24.163L8.61009 20.9752ZM9.47407 24.2822H9.89117C10.0997 24.2822 10.2785 24.2822 10.487 24.2822L7.35879 21.1539C7.03107 21.1539 6.70335 21.1837 6.37563 21.1837L9.47407 24.2822ZM0.715024 21.1539L3.81346 24.2524H4.02201L0.923573 21.1539H0.715024ZM1.13212 21.1539L4.23056 24.2524H4.4987L1.40026 21.1539H1.13212ZM1.57901 21.1539L4.67745 24.2524H5.00517L1.93652 21.1539H1.57901ZM2.14507 21.1539L5.24351 24.2524H5.66061L2.56217 21.1539H2.14507ZM2.77072 21.1539L5.86916 24.2524H6.37563L3.2772 21.1539H2.77072ZM3.48574 21.1539L6.58418 24.2524H7.20983L4.0816 21.1539H3.48574ZM4.31994 21.1539L7.41838 24.2524H8.1632L5.06476 21.1539H4.31994ZM5.2733 21.1539L8.37174 24.2524H9.26552L6.13729 21.1539H5.2733ZM36.8238 17.9959L40.4585 21.6306V24.6993H26.3963L22.7616 21.0645V0.299047H36.4067L40.0414 3.93375V6.82364H29.6735V8.90913H34.7383L38.373 12.5438V15.4933H29.6735V17.9959H36.8238ZM39.6243 4.11251L36.5258 1.01407V3.45707L39.6243 6.43634V4.11251ZM29.5543 6.40655L26.4559 3.42728H26.2474L29.3458 6.40655H29.5543ZM30.1502 6.40655L27.0518 3.42728H26.6942L29.7927 6.40655H30.1502ZM30.8652 6.40655L27.7668 3.42728H27.2603L30.3587 6.40655H30.8652ZM31.759 6.40655L28.6606 3.42728H27.9753L31.0738 6.40655H31.759ZM32.9209 6.40655L29.7927 3.42728H28.8691L31.9675 6.40655H32.9209ZM34.0828 6.40655L30.9546 3.42728H30.031L33.1295 6.40655H34.0828ZM35.3043 6.40655L32.2059 3.42728H31.2227L34.3212 6.40655H35.3043ZM36.4662 6.40655L33.3976 3.42728H32.4144L35.5129 6.40655H36.4662ZM37.509 6.40655L34.4105 3.42728H33.6061L36.7046 6.40655H37.509ZM38.373 6.40655L35.2745 3.42728H34.5893L37.7175 6.40655H38.373ZM38.9688 6.40655L35.9002 3.42728H35.5129L38.6411 6.40655H38.9688ZM39.3859 6.40655L36.3173 3.42728H36.0789L39.1774 6.40655H39.3859ZM26.1282 7.71742L26.8432 8.40266L26.724 8.49203L26.1282 7.92597V8.90913H29.2266V6.52572L26.1282 3.54645V4.1721L28.8393 6.76406L28.7201 6.85344L26.158 4.41044V5.09567L28.3626 7.21095L28.2435 7.30033L26.158 5.30422V5.98945L27.8562 7.62805L27.737 7.71742L26.158 6.198V6.88323L27.3795 8.04514L27.2603 8.13452L26.158 7.09178V7.71742H26.1282ZM34.8574 9.62416V12.1267L37.9857 15.106V12.7524L34.8574 9.62416ZM29.3458 15.0762H29.6139L26.5155 12.097H26.2474L29.3458 15.0762ZM26.724 12.097L29.8225 15.0762H30.329L27.2305 12.097H26.724ZM27.4689 12.097L30.5673 15.0762H31.3717L28.2435 12.097H27.4689ZM28.4818 12.097L31.5802 15.0762H32.6826L29.5841 12.097H28.4818ZM34.0828 15.0762L31.0142 12.097H29.8225L32.9209 15.0762H34.0828ZM35.4831 15.0762L32.3846 12.097H31.2227L34.3212 15.0762H35.4831ZM36.496 15.0762L33.4274 12.097H32.623L35.7214 15.0762H36.496ZM37.2409 15.0762L34.1424 12.097H33.6359L36.7344 15.0762H37.2409ZM34.351 12.097L37.4792 15.0762H37.7473L34.6489 12.097H34.351ZM26.1282 17.3107L26.5155 17.6682L26.3963 17.7874L26.1282 17.549V18.0257H29.2266V15.1954L26.1282 12.2161V12.8716L28.8393 15.4635L28.7499 15.5529L26.158 13.0801V13.7653L28.4222 15.9104L28.303 15.9998L26.158 13.9441V14.6293L27.9455 16.3275L27.8264 16.4169L26.158 14.8379V15.5231L27.4689 16.7744L27.3497 16.8638L26.158 15.7317V16.4169L26.9922 17.2213L26.873 17.3107L26.1282 16.5956V17.3107ZM36.9429 18.7109V21.1837L40.0414 24.2822V21.8094L36.9429 18.7109ZM24.8769 21.1539H23.4468L26.5453 24.2524H27.9753L24.8769 21.1539ZM26.3665 21.1539H25.0854L28.1839 24.2524H29.465L26.3665 21.1539ZM26.5751 21.1539L29.7033 24.2524H30.8354L27.7072 21.1539H26.5751ZM27.9157 21.1539L31.044 24.2524H32.0569L28.9287 21.1539H27.9157ZM30.031 21.1539H29.1372L32.2357 24.2524H33.1295L30.031 21.1539ZM34.1424 24.2822L31.044 21.1539H30.2396L33.3678 24.2524H34.1424V24.2822ZM31.2525 21.1539L34.351 24.2524H35.066L31.9378 21.1539H31.2525ZM32.1463 21.1539L35.2447 24.2524H35.8704L32.7719 21.1539H32.1463ZM32.9805 21.1539L36.1087 24.2524H36.645L33.5168 21.1539H32.9805ZM33.7253 21.1539L36.8535 24.2524H37.3302L34.1722 21.1539H33.7253ZM34.3808 21.1539L37.509 24.2524H37.9261L34.7979 21.1539H34.3808ZM35.0064 21.1539L38.1346 24.2524H38.4921L35.3341 21.1539H35.0064ZM35.5427 21.1539L38.6709 24.2524H38.9688L35.8704 21.1539H35.5427ZM36.0491 21.1539L39.1476 24.2524H39.4157L36.3173 21.1539H36.0491ZM36.5258 21.1539L39.6541 24.2524H39.8626L36.7344 21.1539H36.5258ZM59.9727 6.94281H49.2175V9.62416H54.5206L58.1553 13.2589V16.2381H49.1877V24.6993H45.9403L42.3056 21.0645V0.299047H56.3082L59.9429 3.93375V6.94281H59.9727ZM56.4571 1.01407V3.57624L59.5556 6.55551V4.1423L56.4571 1.01407ZM48.8898 6.52572H49.1281L46.0297 3.54645H45.8211L48.8898 6.52572ZM49.6942 6.52572L46.566 3.54645H46.2382L49.3069 6.52572H49.6942ZM50.439 6.52572L47.3108 3.54645H46.8043L49.9027 6.52572H50.439ZM51.3924 6.52572L48.2939 3.54645H47.5491L50.6476 6.52572H51.3924ZM52.7033 6.52572L49.6048 3.54645H48.5323L51.6009 6.52572H52.7033ZM53.9546 6.52572L50.8561 3.54645H49.8134L52.9118 6.52572H53.9546ZM55.325 6.52572L52.2266 3.54645H51.0647L54.1631 6.52572H55.325ZM56.6359 6.52572L53.5375 3.54645H52.4351L55.5634 6.52572H56.6359ZM57.5893 6.52572L54.4908 3.54645H53.746L56.8444 6.52572H57.5893ZM58.3341 6.52572L55.2356 3.54645H54.6994L57.7978 6.52572H58.3341ZM58.9001 6.52572L55.8017 3.54645H55.4442L58.5426 6.52572H58.9001ZM56.0102 3.54645L59.1087 6.52572H59.3172L56.2188 3.54645H56.0102ZM45.6722 9.62416H48.7706V6.64489L45.6722 3.66562V4.1721L48.4429 6.85344L48.3535 6.94281L45.6722 4.38064V5.06588L47.996 7.30033L47.8768 7.4195L45.6722 5.27443V5.95966L47.5491 7.74722L47.43 7.86639L45.6722 6.16821V6.85344L47.1022 8.2239L47.0129 8.31328L45.702 7.06199V7.74722L46.6553 8.67079L46.566 8.76017L45.702 7.95577V8.641L46.2085 9.14747L46.1191 9.23685L45.702 8.84955V9.62416H45.6722ZM54.6398 10.3094V12.8418L57.7382 15.821V13.4376L54.6398 10.3094ZM45.7616 12.8418L48.86 15.821H49.1579L46.0595 12.8418H45.7616ZM46.268 12.8418L49.3665 15.821H49.873L46.7745 12.8418H46.268ZM46.9831 12.8418L50.0517 15.821H50.9753L47.847 12.8418H46.9831ZM48.0854 12.8418L51.1838 15.821H52.316L49.2175 12.8418H48.0854ZM49.4559 12.8418L52.5245 15.821H53.8354L50.7667 12.8418H49.4559ZM50.9753 12.8418L54.0737 15.821H55.2356L52.1372 12.8418H50.9753ZM52.316 12.8418L55.4442 15.821H56.3082L53.2395 12.8418H52.316ZM53.4481 12.8418L56.5465 15.821H57.053L53.9546 12.8418H53.4481ZM54.1333 12.8418L57.2317 15.821H57.4999L54.4014 12.8418H54.1333ZM45.6722 21.1539L48.7706 24.2524V15.8508L48.7408 15.8806L45.6722 12.9311V13.4078L48.4727 16.0892L48.3833 16.1785L45.702 13.6164V14.3016L48.0258 16.5659L47.9066 16.685L45.6722 14.5399V15.2252L47.5491 17.0425L47.43 17.1617L45.6722 15.4635V16.1488L47.1022 17.5192L47.0129 17.6086L45.6722 16.3275V17.0127L46.6553 17.9363L46.566 18.0257L45.702 17.1915V17.8767L46.2382 18.3832L46.1489 18.4726L45.7318 18.0555V21.1539H45.6722ZM43.0206 21.1539L46.1191 24.2524H46.7149L43.6463 21.1539H43.0206ZM44.3613 21.1539H43.825L46.9235 24.2524H47.4597L44.3613 21.1539ZM44.5699 21.1539L47.6981 24.2524H48.0854L44.987 21.1539H44.5699ZM45.1955 21.1539L48.2939 24.2524H48.5621L45.4636 21.1539H45.1955ZM64.8587 0.299047L68.4934 3.93375V24.6695H65.1864L61.5517 21.0348V0.299047H64.8587ZM64.9778 1.22262L68.0763 4.32106V4.08272L64.9778 0.984279V1.22262ZM64.9778 1.87806L68.0763 4.9765V4.5594L64.9778 1.46096V1.87806ZM64.9778 2.74205L68.0763 5.84049V5.18505L64.9778 2.08661V2.74205ZM64.9778 3.93375L68.0763 7.03219V6.04904L64.9778 2.9506V3.93375ZM64.9778 5.60214L68.0763 8.70058V7.24074L64.9778 4.1423V5.60214ZM64.9778 7.86639L68.0763 10.9648V8.87934L64.9778 5.7809V7.86639ZM64.9778 21.1539L68.0763 24.2524V11.1734L64.9778 8.07494V21.1539ZM62.9221 21.1539H62.2369L65.3354 24.2524H65.9908L62.9221 21.1539ZM66.7654 24.2822L63.667 21.1539H63.1307L66.2291 24.2524H66.7654V24.2822ZM63.8457 21.1539L66.974 24.2524H67.3613L64.2628 21.1539H63.8457ZM64.4714 21.1539L67.5698 24.2524H67.8379L64.7693 21.1539H64.4714ZM96.6177 5.21484C98.0477 6.6151 98.7032 8.2239 98.7032 10.1902C98.7032 14.2718 95.5749 17.2511 91.2252 17.2511H87.5011V24.6695H84.2239L80.5892 21.0348V0.299047H87.948C90.5102 0.299047 92.5659 1.22262 93.698 2.32495L96.6177 5.21484ZM84.0154 8.641L84.3133 8.93892L84.1941 9.0581L84.0154 8.87934V10.9052H86.9946V6.40655L84.0154 3.42728V4.05293L86.5775 6.67468L86.4882 6.76406L84.0452 4.29127V5.00629L86.1604 7.15136L86.0711 7.24074L84.075 5.21484V5.90007L85.7433 7.56846L85.6242 7.65784L84.075 6.10862V6.79385L85.2964 8.01535L85.1773 8.10473L84.075 7.0024V7.68763L84.8496 8.46224L84.7304 8.55162L84.075 7.89618V8.641H84.0154ZM87.3521 6.25758L84.5516 3.42728H84.2239L87.0542 6.25758H87.1734H87.3521ZM88.0076 6.25758L85.1773 3.42728H84.7304L87.5607 6.25758H88.0076ZM88.8418 6.25758L86.0115 3.42728H85.3858L88.2161 6.25758H88.8418ZM89.7951 6.25758L86.9648 3.42728H86.1902L89.0205 6.25758H89.7951ZM88.0374 3.42728H87.2032L90.0335 6.25758H90.8677L88.0374 3.42728ZM91.6721 6.25758L88.9312 3.51666C88.7226 3.48686 88.4545 3.45707 88.2161 3.45707L91.0167 6.25758H91.6721ZM91.9998 5.90007L89.8249 3.72521C89.6462 3.66562 89.4078 3.60603 89.1993 3.54645L91.9104 6.25758C91.97 6.25758 92.0296 6.25758 92.0892 6.25758C92.0594 6.16821 92.0296 6.04904 91.9998 5.90007ZM91.8508 5.57235C91.5231 4.82753 90.9571 4.26147 90.2122 3.90396L91.8508 5.57235ZM96.3197 5.51277L95.0387 4.20189C95.3962 4.9765 95.6345 5.95966 95.6345 6.94281C95.6345 7.12157 95.6345 7.30033 95.6345 7.44929L98.3158 9.89229C98.2265 8.16432 97.571 6.79385 96.3197 5.51277ZM87.8884 10.9052C90.4208 10.9052 92.1786 9.35602 92.1786 7.12157C92.1786 7.0024 92.1786 6.85344 92.1786 6.73427C91.9402 6.70447 91.6721 6.67468 91.404 6.67468H87.3819V10.9052H87.8884ZM97.8988 12.6034C98.1669 11.8586 98.3158 11.084 98.3158 10.22V10.1306L95.6047 7.65784C95.5451 8.49203 95.3366 9.26664 95.0089 9.95188L97.8988 12.6034ZM94.9195 10.1008C94.6514 10.6371 94.3236 11.1138 93.9363 11.5607L96.9454 14.3016C97.3029 13.8249 97.6008 13.3184 97.8094 12.7524L94.9195 10.1008ZM95.8133 15.4039C96.2006 15.106 96.5581 14.7485 96.8858 14.391L93.847 11.6501C93.5192 12.0076 93.1319 12.3353 92.7446 12.6034L95.8133 15.4039ZM91.4933 13.3185L94.5918 16.1488C94.9791 15.97 95.3366 15.7615 95.6643 15.4933L92.5957 12.6928C92.2382 12.9311 91.8806 13.1397 91.4933 13.3185ZM90.2718 13.7355L93.4001 16.5956C93.7576 16.5063 94.1449 16.3573 94.4726 16.2083L91.3444 13.378C90.9869 13.4972 90.6293 13.6164 90.2718 13.7355ZM89.0801 13.9441L92.2382 16.8042C92.5957 16.7744 92.9234 16.7148 93.2511 16.6254L90.1229 13.7653C89.7654 13.8547 89.4376 13.9143 89.0801 13.9441ZM91.0762 16.8638H91.2252C91.4933 16.8638 91.7615 16.8638 91.9998 16.834L88.8716 13.9739C88.5736 14.0037 88.2757 14.0037 87.9778 14.0335L91.0762 16.8638ZM86.9351 14.0335L90.0335 16.8638H90.8081L87.7097 14.0335H86.9351ZM87.1138 24.2822V16.8638L84.0154 14.0335V14.7783L86.7265 17.2213L86.6073 17.3107L84.0154 14.957V15.7317L86.22 17.7278L86.1009 17.8171L84.0154 15.9402V16.7148L85.6838 18.2342L85.5944 18.3236L84.0154 16.8936V17.6682L85.1773 18.7407L85.0879 18.8301L84.0154 17.8767V18.6215L84.7006 19.2472L84.6112 19.3664L84.0452 18.8599V21.1539L87.1138 24.2822ZM84.2537 14.0335L87.3521 16.8638H87.6799L84.5814 14.0335H84.2537ZM84.7602 14.0335L87.8586 16.8638H88.2459L85.1475 14.0335H84.7602ZM85.3858 14.0335L88.4843 16.8638H88.9907L85.8923 14.0335H85.3858ZM86.0711 14.0335L89.1993 16.8638H89.8547L86.7563 14.0335H86.0711ZM81.3042 21.1539L84.4027 24.2524H85.0581L81.9597 21.1539H81.3042ZM82.7045 21.1539H82.1682L85.2667 24.2524H85.8029L82.7045 21.1539ZM82.8832 21.1539L86.0115 24.2524H86.3988L83.3003 21.1539H82.8832ZM83.5089 21.1539L86.6073 24.2524H86.8755L83.8068 21.1539H83.5089ZM118.039 0.299047L121.524 3.78479V15.3146C121.524 21.1539 118.039 24.9972 112.765 24.9972C109.965 24.9972 107.969 24.2226 106.151 22.4052L103.142 19.4259C101.504 17.8171 100.61 15.3741 100.61 12.2459V0.299047H103.887L107.522 3.93375V15.6423C107.522 16.5361 107.611 17.4298 107.85 18.2045C108.326 18.3236 108.862 18.3832 109.399 18.3832C112.706 18.3832 114.702 16.0594 114.702 12.097V0.299047H118.039ZM107.164 4.11251L104.066 1.01407V1.25241L107.164 4.35085V4.11251ZM118.158 1.22262L121.137 4.20189V3.96355L118.158 1.01407V1.22262ZM107.164 4.9765V4.5594L104.066 1.46096V1.87806L107.164 4.9765ZM118.158 1.87806L121.137 4.85733V4.44023L118.158 1.46096V1.87806ZM107.164 5.81069V5.15525L104.066 2.05682V2.71225L107.164 5.81069ZM118.158 2.74205L121.137 5.72132V5.06588L118.158 2.08661V2.74205ZM107.164 7.03219V6.04904L104.066 2.9506V3.93375L107.164 7.03219ZM118.158 3.93375L121.137 6.91302V5.92986L118.158 2.9506V3.93375ZM107.164 8.70058V7.24074L104.066 4.1423V5.60214L107.164 8.70058ZM118.158 5.60214L121.137 8.58141V7.12157L118.158 4.1423V5.60214ZM107.164 10.9648V8.87934L104.066 5.7809V7.86639L107.164 10.9648ZM121.137 8.76017L118.158 5.7809V7.86639L121.137 10.8457V8.76017ZM104.036 8.07494V12.1267C104.036 15.1656 105.287 17.2809 107.432 18.0853C107.254 17.3107 107.134 16.5063 107.134 15.6721V11.2032L104.036 8.07494ZM120.631 18.8599C120.958 17.7874 121.137 16.5956 121.137 15.3146V11.0244L118.158 8.04514V12.2161C118.158 13.5866 118.009 14.8081 117.681 15.8806L120.631 18.8599ZM117.622 16.0594C117.413 16.7744 117.115 17.4298 116.758 17.9959L119.707 20.9454C120.065 20.3495 120.392 19.7239 120.601 19.0089L117.622 16.0594ZM118.545 22.3754C118.932 21.9881 119.29 21.571 119.588 21.0645L116.638 18.1151C116.34 18.5918 115.983 19.0089 115.596 19.4259L118.545 22.3754ZM114.374 20.3793L117.353 23.3586C117.741 23.1202 118.128 22.8223 118.456 22.4946L115.506 19.5451C115.149 19.843 114.791 20.1112 114.374 20.3793ZM113.182 20.9752L116.162 23.9544C116.519 23.8055 116.906 23.6267 117.234 23.3884L114.255 20.4091C113.927 20.6474 113.54 20.8262 113.182 20.9752ZM104.87 20.5879L106.449 22.1073C106.747 22.4052 107.075 22.6734 107.373 22.8819L105.228 20.7368L104.87 20.5879ZM106.032 21.0645C105.883 21.005 105.734 20.9752 105.585 20.9156L108.028 23.3586C108.237 23.4778 108.445 23.6267 108.684 23.7161L106.032 21.0645ZM111.991 21.3327L115 24.3417C115.357 24.2524 115.685 24.163 116.013 24.014L113.033 21.0348C112.676 21.1539 112.318 21.2433 111.991 21.3327ZM106.33 21.1539L109.101 23.9246C109.28 23.9842 109.488 24.0736 109.697 24.1332L106.866 21.3029C106.658 21.2433 106.509 21.1837 106.33 21.1539ZM107.134 21.3625L109.995 24.2226C110.203 24.2822 110.412 24.3417 110.62 24.3715L107.701 21.4519C107.492 21.4221 107.313 21.3923 107.134 21.3625ZM110.829 21.5412L113.838 24.5503C114.166 24.5205 114.493 24.4609 114.791 24.4013L111.782 21.3923C111.484 21.4519 111.186 21.5114 110.829 21.5412ZM107.939 21.5114L110.859 24.4311C111.097 24.4609 111.335 24.4907 111.574 24.5205L108.624 21.571C108.386 21.571 108.177 21.5412 107.939 21.5114ZM109.816 21.6306L112.795 24.6099C113.093 24.6099 113.391 24.6099 113.659 24.5801L110.68 21.6008C110.382 21.6008 110.084 21.6008 109.816 21.6306ZM108.862 21.6008L111.812 24.5503C112.08 24.5801 112.318 24.5801 112.587 24.5801L109.607 21.6008H109.399C109.22 21.6306 109.041 21.6306 108.862 21.6008ZM137.761 17.9363L141.396 21.571V24.6993H128.079L124.444 21.0645V0.299047H127.721L131.356 3.93375V17.9065H137.761V17.9363ZM130.969 4.11251L127.87 1.01407V1.22262L130.969 4.32106V4.11251ZM130.969 4.9765V4.5594L127.87 1.46096V1.87806L130.969 4.9765ZM130.969 5.81069V5.15525L127.87 2.05682V2.71225L130.969 5.81069ZM130.969 7.03219V6.04904L127.87 2.9506V3.93375L130.969 7.03219ZM130.969 8.70058V7.24074L127.87 4.1423V5.60214L130.969 8.70058ZM130.969 10.9648V8.87934L127.87 5.7809V7.86639L130.969 10.9648ZM127.84 17.9363H130.939V11.1734L127.84 8.07494V17.9363ZM140.979 24.2822V21.7498L137.881 18.6513V21.1837L140.979 24.2822ZM125.129 21.1539L128.228 24.2524H129.598L126.5 21.1539H125.129ZM126.678 21.1539L129.807 24.2524H131.028L127.93 21.1539H126.678ZM128.109 21.1539L131.237 24.2524H132.339L129.211 21.1539H128.109ZM129.419 21.1539L132.548 24.2524H133.501L130.403 21.1539H129.419ZM130.611 21.1539L133.739 24.2524H134.603L131.475 21.1539H130.611ZM131.684 21.1539L134.782 24.2524H135.557L132.458 21.1539H131.684ZM132.667 21.1539L135.795 24.2524H136.48L133.352 21.1539H132.667ZM133.531 21.1539L136.659 24.2524H137.255L134.156 21.1539H133.531ZM134.335 21.1539L137.463 24.2524H138L134.901 21.1539H134.335ZM135.08 21.1539L138.178 24.2524H138.655L135.557 21.1539H135.08ZM135.765 21.1539L138.893 24.2524H139.281L136.153 21.1539H135.765ZM136.361 21.1539L139.46 24.2524H139.817L136.689 21.1539H136.361ZM136.927 21.1539L140.026 24.2524H140.324L137.225 21.1539H136.927ZM137.404 21.1539L140.502 24.2524H140.741L137.672 21.1539H137.404ZM157.097 14.7187C158.229 15.8508 158.706 17.0723 158.706 18.8003C158.706 22.4648 155.816 24.9972 151.615 24.9972C148.576 25.0568 146.312 24.163 144.882 23.0904L141.277 19.4855V16.0296L141.634 15.8806C143.213 17.3703 145.418 18.1747 147.682 18.1747C149.589 18.1747 151.108 17.4894 151.704 16.4467C149.41 15.3444 146.759 14.7187 145.239 12.812L143.035 10.0115C141.992 8.67079 141.485 7.68763 141.485 6.07883C141.485 2.47391 144.346 0.00112003 148.517 0.00112003C150.632 -0.0286726 152.777 0.537388 154.326 1.52055L157.931 5.12546V8.40266L157.603 8.55162C155.965 7.33012 154.058 6.64489 152.3 6.64489C150.274 6.64489 148.785 7.44929 148.397 8.70058C150.453 9.4454 152.628 10.1604 154.028 11.5905L157.097 14.7187ZM154.445 2.23557V4.91691L157.574 8.04514V5.3638L154.445 2.23557ZM149.172 3.21873C149.053 3.21873 148.934 3.21873 148.844 3.21873C148.636 3.21873 148.397 3.21873 148.189 3.24852L151.347 6.40655C151.645 6.37675 151.972 6.34696 152.27 6.34696L149.172 3.21873ZM153.313 6.37675L150.274 3.3379C149.976 3.27832 149.678 3.24852 149.381 3.21873L152.479 6.31717C152.747 6.31717 153.015 6.34696 153.313 6.37675ZM151.138 6.40655L147.98 3.24852C147.593 3.30811 147.235 3.36769 146.908 3.48686L150.096 6.67468C150.423 6.55551 150.781 6.46613 151.138 6.40655ZM154.267 6.55551L151.347 3.63583C151.079 3.54645 150.811 3.45707 150.542 3.39749L153.551 6.40655C153.79 6.43634 154.028 6.49592 154.267 6.55551ZM149.976 6.73427L146.789 3.54645C146.371 3.69541 146.014 3.90396 145.716 4.1423L148.934 7.35991C149.232 7.12157 149.589 6.91302 149.976 6.73427ZM155.22 6.85344L152.449 4.08272C152.211 3.96355 151.943 3.84438 151.675 3.755L154.564 6.64489C154.773 6.67468 154.982 6.76406 155.22 6.85344ZM148.04 8.641C148.189 8.19411 148.457 7.8068 148.814 7.44929L145.597 4.23168C145.18 4.61899 144.912 5.06588 144.852 5.60214L147.831 8.58141L148.04 8.641ZM156.084 7.21095L153.641 4.76795C153.403 4.61899 153.134 4.44023 152.866 4.32106L155.548 7.0024C155.726 7.06199 155.905 7.12157 156.084 7.21095ZM154.177 5.06588L156.531 7.4195C156.68 7.47908 156.829 7.56846 157.007 7.68763L154.326 5.00629L154.177 5.06588ZM144.822 5.87028C144.822 7.09178 145.954 7.77701 147.474 8.40266L144.822 5.75111V5.87028ZM145.895 12.9311C146.431 13.4972 147.146 13.9441 147.98 14.3612L144.643 11.0244C144.465 10.935 144.286 10.8159 144.137 10.7265C144.643 11.4415 145.239 12.2161 145.895 12.9311ZM146.103 11.7096C145.746 11.5607 145.388 11.4117 145.09 11.233L148.397 14.5399C148.725 14.6889 149.053 14.8379 149.41 14.9868L146.103 11.7096ZM146.431 11.8586L149.738 15.1656C150.006 15.2848 150.274 15.3741 150.513 15.4933L147.176 12.1565C146.938 12.0374 146.699 11.948 146.431 11.8586ZM147.504 12.2459L150.9 15.6423C151.108 15.7317 151.347 15.821 151.555 15.9402L148.099 12.4545C147.921 12.3949 147.712 12.3353 147.504 12.2459ZM151.913 16.0594C151.913 15.9998 151.943 15.9104 151.972 15.8508L148.904 12.7524C148.755 12.6928 148.606 12.6332 148.457 12.6034L151.913 16.0594ZM149.232 12.8716L152.002 15.6423C152.002 15.5827 152.002 15.5231 152.002 15.4635L149.619 13.0801L149.232 12.8716ZM152.002 15.2252L151.972 15.0166L150.334 13.378C150.245 13.3184 150.125 13.2887 150.006 13.2291L152.002 15.2252ZM156.799 15.0166L155.16 13.378C155.369 13.9441 155.488 14.5697 155.488 15.2848C155.488 15.6423 155.458 15.9998 155.399 16.3573L158.289 19.2472C158.289 19.0982 158.289 18.9493 158.289 18.8003C158.289 17.1617 157.842 16.0594 156.799 15.0166ZM151.853 14.6591C151.645 14.2718 151.287 13.9143 150.811 13.6462L151.853 14.6591ZM158.259 19.4259L155.339 16.5063C155.19 17.1915 154.952 17.8171 154.594 18.3534L157.663 21.4221C157.991 20.8262 158.169 20.141 158.259 19.4259ZM156.62 22.7925C157.007 22.435 157.335 22.0179 157.574 21.571L154.505 18.5024C154.237 18.9493 153.879 19.3068 153.492 19.6643L156.62 22.7925ZM152.3 20.4687L155.458 23.6565C155.846 23.4182 156.203 23.1798 156.531 22.8819L153.403 19.7537C153.045 20.0218 152.688 20.2899 152.3 20.4687ZM142.796 20.4091L145.12 22.7329C145.329 22.8819 145.567 23.0607 145.805 23.2096L143.154 20.5879L142.796 20.4091ZM151.079 21.005L154.267 24.1928C154.654 24.0736 155.011 23.9246 155.339 23.7161L152.151 20.5581C151.824 20.7368 151.466 20.8858 151.079 21.005ZM143.541 20.7368L146.282 23.4778C146.431 23.5373 146.61 23.6267 146.789 23.7161L143.958 20.8858L143.541 20.7368ZM144.256 20.9752L147.146 23.8651C147.325 23.9246 147.504 23.9842 147.712 24.0438L144.763 21.0943L144.256 20.9752ZM149.887 21.3029L153.045 24.4609C153.403 24.4013 153.76 24.3417 154.088 24.2226L150.93 21.0645C150.572 21.1539 150.245 21.2433 149.887 21.3029ZM145.031 21.1837L148.01 24.163C148.219 24.2226 148.427 24.2822 148.636 24.3119L145.597 21.2731C145.418 21.2433 145.21 21.2135 145.031 21.1837ZM145.835 21.3327L148.874 24.3715C149.112 24.4013 149.321 24.4609 149.559 24.4907L146.491 21.4221C146.282 21.3923 146.074 21.3625 145.835 21.3327ZM152.866 24.4907L149.708 21.3327C149.41 21.3923 149.083 21.4221 148.755 21.4519L151.883 24.5801C152.241 24.5801 152.568 24.5503 152.866 24.4907ZM146.729 21.4221L149.798 24.4907C150.066 24.5205 150.304 24.5503 150.572 24.5503L147.474 21.4519C147.235 21.4519 146.997 21.4519 146.729 21.4221ZM150.811 24.5801C151.079 24.5801 151.347 24.5801 151.615 24.5801H151.675L148.546 21.4519C148.397 21.4519 148.248 21.4519 148.07 21.4519H147.682L150.811 24.5801ZM175.121 17.9959L178.756 21.6306V24.6993H164.694L161.059 21.0645V0.299047H174.704L178.339 3.93375V6.82364H167.971V8.90913H173.036L176.671 12.5438V15.4933H167.971V17.9959H175.121ZM177.922 4.11251L174.823 1.01407V3.45707L177.922 6.43634V4.11251ZM167.852 6.40655L164.754 3.42728H164.545L167.643 6.40655H167.852ZM168.448 6.40655L165.349 3.42728H164.992L168.09 6.40655H168.448ZM169.163 6.40655L166.064 3.42728H165.558L168.656 6.40655H169.163ZM170.057 6.40655L166.958 3.42728H166.273L169.371 6.40655H170.057ZM171.219 6.40655L168.09 3.42728H167.167L170.265 6.40655H171.219ZM172.38 6.40655L169.252 3.42728H168.329L171.427 6.40655H172.38ZM173.602 6.40655L170.504 3.42728H169.52L172.619 6.40655H173.602ZM174.764 6.40655L171.695 3.42728H170.712L173.811 6.40655H174.764ZM175.777 6.40655L172.678 3.42728H171.874L174.972 6.40655H175.777ZM176.671 6.40655L173.572 3.42728H172.887L176.015 6.40655H176.671ZM177.237 6.40655L174.168 3.42728H173.781L176.909 6.40655H177.237ZM177.684 6.40655L174.615 3.42728H174.377L177.475 6.40655H177.684ZM164.426 7.71742L165.141 8.40266L165.022 8.49203L164.426 7.92597V8.90913H167.524V6.52572L164.426 3.54645V4.1721L167.137 6.76406L167.018 6.85344L164.456 4.41044V5.09567L166.66 7.21095L166.541 7.30033L164.456 5.30422V5.98945L166.154 7.62805L166.035 7.71742L164.456 6.198V6.88323L165.677 8.04514L165.558 8.13452L164.456 7.09178V7.71742H164.426ZM173.155 9.62416V12.1267L176.283 15.106V12.7524L173.155 9.62416ZM167.643 15.0762H167.912L164.813 12.097H164.545L167.643 15.0762ZM165.022 12.097L168.12 15.0762H168.627L165.528 12.097H165.022ZM165.766 12.097L168.865 15.0762H169.669L166.541 12.097H165.766ZM166.779 12.097L169.878 15.0762H170.98L167.882 12.097H166.779ZM172.38 15.0762L169.312 12.097H168.12L171.219 15.0762H172.38ZM173.781 15.0762L170.682 12.097H169.52L172.619 15.0762H173.781ZM174.794 15.0762L171.725 12.097H170.921L174.019 15.0762H174.794ZM175.538 15.0762L172.44 12.097H171.904L175.002 15.0762H175.538ZM172.619 12.097L175.747 15.0762H176.015L172.917 12.097H172.619ZM164.426 17.3107L164.813 17.6682L164.694 17.7874L164.426 17.549V18.0257H167.524V15.1954L164.426 12.2161V12.8716L167.137 15.4635L167.048 15.5529L164.456 13.0801V13.7653L166.72 15.9104L166.601 15.9998L164.456 13.9441V14.6293L166.243 16.3275L166.124 16.4169L164.456 14.8379V15.5231L165.766 16.7744L165.647 16.8638L164.456 15.7317V16.4169L165.29 17.2213L165.171 17.3107L164.426 16.5956V17.3107ZM175.241 18.7109V21.1837L178.339 24.2822V21.8094L175.241 18.7109ZM163.175 21.1539H161.774L164.873 24.2524H166.303L163.175 21.1539ZM164.664 21.1539H163.383L166.482 24.2524H167.763L164.664 21.1539ZM164.873 21.1539L168.001 24.2524H169.133L166.005 21.1539H164.873ZM166.213 21.1539L169.342 24.2524H170.355L167.226 21.1539H166.213ZM168.329 21.1539H167.435L170.533 24.2524H171.427L168.329 21.1539ZM172.44 24.2822L169.342 21.1539H168.537L171.665 24.2524H172.44V24.2822ZM169.55 21.1539L172.649 24.2524H173.364L170.235 21.1539H169.55ZM170.444 21.1539L173.542 24.2524H174.168L171.07 21.1539H170.444ZM171.248 21.1539L174.377 24.2524H174.913L171.814 21.1539H171.248ZM171.993 21.1539L175.121 24.2524H175.598L172.47 21.1539H171.993ZM172.678 21.1539L175.807 24.2524H176.224L173.095 21.1539H172.678ZM173.304 21.1539L176.432 24.2524H176.79L173.632 21.1539H173.304ZM173.84 21.1539L176.969 24.2524H177.266L174.138 21.1539H173.84ZM174.347 21.1539L177.445 24.2524H177.713L174.615 21.1539H174.347ZM174.823 21.1539L177.952 24.2524H178.16L175.002 21.1539H174.823Z" fill="#6066D2" fill-opacity="0.2"/>
</svg>
