<svg width="82" height="82" viewBox="0 0 82 82" fill="none" xmlns="http://www.w3.org/2000/svg">
<path fill-rule="evenodd" clip-rule="evenodd" d="M54.3939 12.7911L65.1063 7.83248C60.9659 4.81722 56.2386 2.55934 51.1287 1.26044C47.8889 0.437309 44.4953 0 40.9999 0C38.4183 0 35.8931 0.238814 33.4435 0.694732L30.2434 15.2655L29.2497 19.7893L28.1152 24.9564L34.6227 21.9436L40.3207 19.3061L50.0841 14.7866L54.3939 12.7911ZM82.0001 40.9996V40.9407L69.9788 36.121L65.5146 34.3308L59.8513 32.0599L61.8815 39.2274L63.4813 44.8771L66.922 57.0244L68.2408 61.6815L70.4596 69.5153C72.741 67.1594 74.742 64.5299 76.4094 61.6815C77.284 60.1872 78.0668 58.6322 78.7504 57.0244C80.8426 52.1017 82.0001 46.6859 82.0001 40.9996ZM28.028 2.09484L25.5486 13.383L24.5549 17.9068L22.4286 27.589L21.1607 33.3621L19.3904 41.4228L3.33664 24.7729C5.28993 20.2453 8.03534 16.1402 11.3992 12.6318C12.5666 11.4135 13.809 10.2672 15.1178 9.20033C18.9159 6.10567 23.2784 3.67721 28.028 2.09484ZM3.24971 57.0245H26.7929L22.1736 52.0094L18.0486 47.5315L9.82852 38.6073L6.47956 34.9717L1.58795 29.662C0.826228 32.3138 0.325653 35.0753 0.114134 37.9187C0.0384581 38.936 0 39.9632 0 40.9998C0 41.715 0.0186087 42.4258 0.0545856 43.1317C0.305804 48.0407 1.42047 52.7209 3.24971 57.0245ZM45.2192 61.6816L38.912 70.1809L31.0455 80.7824H31.0449C26.0149 79.5281 21.3522 77.3447 17.2502 74.4243C15.7262 73.3401 14.2803 72.1541 12.9212 70.8763C10.0604 68.1867 7.5867 65.0914 5.5906 61.6816H45.2192ZM49.0673 81.206C55.599 79.9034 61.5712 77.0476 66.5825 73.0411L63.3657 61.6816L62.0463 57.0244L59.9528 49.6324L54.4676 57.0244L51.0119 61.6816L42.1201 73.6639L36.1454 81.7153C37.7377 81.9033 39.3573 82 40.9998 82C43.7614 82 46.459 81.7271 49.0673 81.206ZM81.685 35.8923L72.7943 32.3275L68.3295 30.5373L58.2789 26.5072L52.7788 24.3021L46.324 21.7136L51.3825 19.372L55.6929 17.3765L69.1191 11.1617C71.8589 13.744 74.2421 16.6991 76.1886 19.9464C77.0743 21.4233 77.8696 22.9598 78.5661 24.549C80.1218 28.0958 81.1894 31.9057 81.685 35.8923ZM48.7119 57.0244L58.2954 44.1371L54.1946 29.8325L40.5017 24.3621L26.8752 30.6482L23.5318 45.8951L34.1729 57.0244H48.7119Z" fill="url(#paint0_linear_23_750)"/>
<defs>
<linearGradient id="paint0_linear_23_750" x1="23.0107" y1="82.0513" x2="23.0107" y2="0.0769275" gradientUnits="userSpaceOnUse">
<stop stop-color="#3341F5"/>
<stop offset="1" stop-color="#5E69FF"/>
</linearGradient>
</defs>
</svg>
