<svg width="128" height="34" viewBox="0 0 128 34" fill="none" xmlns="http://www.w3.org/2000/svg">
<path d="M12.3568 3.16939H15.16C16.8671 2.91415 18.6105 3.13856 20.2007 3.81824C22.1959 5.03648 23.643 6.99771 24.2334 9.28357C24.6514 10.4814 24.6514 10.4814 25.6595 10.0572H26.4464V0.573984H0.0622109V2.24602H1.14413C1.61429 2.24272 2.07921 2.34636 2.50472 2.54933C2.93023 2.75231 3.30553 3.04946 3.60305 3.41895C4.61121 5.06603 4.78333 6.91277 4.78333 16.5208C4.78333 26.7277 4.56203 29.2233 3.60305 30.496C3.36631 30.8232 3.05979 31.0919 2.7064 31.2821C2.353 31.4722 1.96185 31.5789 1.56215 31.5941C0.062211 31.8686 0.0622109 31.8436 0.0622109 32.5174C-0.020737 32.7428 -0.020737 32.9909 0.0622109 33.2162H16.7091C16.8192 32.9958 16.8767 32.7521 16.8767 32.505C16.8767 32.2578 16.8192 32.0141 16.7091 31.7937C16.3059 31.6799 15.8949 31.5965 15.4796 31.5442C15.0303 31.4899 14.5862 31.3981 14.1518 31.2696C13.5297 30.8087 13.0369 30.191 12.7221 29.4776C12.4073 28.7642 12.2814 27.9798 12.3568 27.2018C12.1109 25.5548 11.988 22.5351 11.988 20.0395V18.068H12.9715C14.1969 18.03 15.4216 18.1643 16.6107 18.4673C17.1804 18.8246 17.6653 19.3051 18.0308 19.8745C18.3964 20.444 18.6335 21.0883 18.7254 21.7615L18.9467 22.5351H20.4466V11.4797H19.0696L18.8483 12.5528C18.7552 13.2412 18.5043 13.8979 18.1157 14.47C17.727 15.0422 17.2116 15.5138 16.6107 15.847C16.0288 16.0227 15.4158 16.0653 14.8157 15.9717H11.988V13.2765C11.988 10.4814 12.1355 4.59187 12.2338 3.66851L12.3568 3.16939ZM127.434 22.9594C126.272 21.0607 124.459 19.6653 122.344 19.0413C120.723 18.527 119.224 17.6772 117.943 16.5457C117.654 16.2626 117.439 15.9122 117.314 15.5251C117.19 15.1379 117.161 14.7258 117.23 14.3246C117.231 13.5378 117.541 12.7838 118.09 12.2284C118.462 11.8327 118.934 11.5471 119.453 11.402C119.973 11.257 120.522 11.258 121.041 11.4048C122.116 11.7157 123.088 12.316 123.854 13.1419C124.62 13.9679 125.152 14.9888 125.393 16.0965C125.787 17.2195 125.836 17.2195 126.549 16.92L126.991 16.7454V10.5314L126.672 10.3816C124.251 9.51873 121.683 9.16218 119.123 9.33348C116.918 9.39017 114.814 10.2801 113.222 11.8291C112.499 12.5151 111.934 13.353 111.564 14.2841C111.195 15.2152 111.03 16.2171 111.082 17.2195C111.096 18.7521 111.696 20.2194 112.754 21.3123C113.924 22.4802 115.36 23.3374 116.935 23.8079C120.746 25.3302 121.852 26.3034 121.852 28.0753C121.869 28.8225 121.634 29.5531 121.187 30.1472C120.741 30.7413 120.108 31.1635 119.393 31.3445C118.535 31.536 117.646 31.536 116.787 31.3445C115.663 30.9017 114.659 30.1929 113.859 29.277C113.06 28.3611 112.487 27.2647 112.189 26.0788L111.869 25.2803H111.427C111.215 25.2962 111.007 25.3468 110.812 25.43H110.566V32.5174H110.984C112.645 33.0783 114.359 33.463 116.098 33.6654H118.557C119.624 33.7448 120.696 33.6436 121.729 33.3659C123.042 33.1202 124.268 32.5302 125.286 31.6546C126.304 30.779 127.078 29.6483 127.532 28.3748C127.826 27.6635 127.976 26.8999 127.975 26.1287C128.072 25.0424 127.885 23.9493 127.434 22.9594ZM104.271 10.0572C102.798 9.42933 101.21 9.12476 99.6124 9.16347C98.0148 9.20218 96.4433 9.58329 95.001 10.2818C93.6453 10.9548 92.4437 11.9089 91.4738 13.0824C90.5039 14.2559 89.7872 15.6227 89.3701 17.0947C88.8382 18.7005 88.6129 20.3945 88.7062 22.0859C88.6886 23.0062 88.7627 23.9259 88.9275 24.831C89.3246 27.0566 90.3832 29.1056 91.9612 30.7026C93.5392 32.2997 95.561 33.3684 97.755 33.7652C99.1837 33.9479 100.629 33.9479 102.058 33.7652C103.541 33.5 104.96 32.9494 106.238 32.1431C107.296 31.5413 108.191 30.6842 108.845 29.6475C108.803 29.4849 108.729 29.3325 108.627 29.1996C108.526 29.0666 108.399 28.9558 108.255 28.8739C107.974 28.977 107.709 29.1199 107.468 29.2981C106.245 30.1162 104.8 30.5263 103.337 30.4711C102.365 30.5377 101.391 30.3842 100.485 30.0216C99.5795 29.6591 98.7644 29.0965 98.0992 28.3748C97.5847 27.8897 97.1599 27.3149 96.8452 26.6778C96.0811 25.1263 95.6694 23.4208 95.6403 21.6866V20.7133H109.263V20.2142C109.293 19.7156 109.293 19.2155 109.263 18.7169C109.258 16.9547 108.793 15.2253 107.917 13.7044C107.04 12.1834 105.782 10.925 104.271 10.0572ZM97.4107 18.6919H95.6895V17.2195C96.255 13.4512 97.6566 11.2052 99.3779 11.2052C101.099 11.2052 101.837 13.4262 102.156 17.494V18.642H100.681L97.4107 18.6919ZM62.0515 9.23366C61.2019 9.20021 60.3572 9.38023 59.5926 9.75773C57.9307 10.5768 56.5884 11.9392 55.7813 13.6259L55.4616 14.2248V9.23366H55.3387C55.0436 9.23366 45.9456 11.0804 45.6505 11.2052C45.3555 11.3299 45.4538 11.3549 45.4538 11.8041C45.4538 12.2533 45.4538 12.3282 45.6505 12.3531L46.6095 12.5528C46.8781 12.5595 47.1417 12.6281 47.3802 12.7535C47.6188 12.8789 47.8261 13.0577 47.9865 13.2765C48.6012 14.1 48.7242 15.5475 48.7242 21.7116C48.8456 24.4866 48.7305 27.267 48.3799 30.0219C48.2974 30.4372 48.0899 30.8164 47.786 31.107C47.4821 31.3975 47.0968 31.5852 46.6833 31.644L45.8472 31.8187H45.5276V32.5174C45.4384 32.7502 45.4384 33.0084 45.5276 33.2412H59.2729V32.5174C59.3206 32.2786 59.3206 32.0325 59.2729 31.7937C58.4453 31.761 57.6223 31.6524 56.814 31.4693C56.3738 31.2356 56.0137 30.8721 55.7811 30.4266C55.5484 29.9811 55.4542 29.4746 55.5108 28.9737C55.3141 27.5263 55.2157 23.2838 55.2649 20.0395C55.3141 16.7953 55.2649 16.5956 55.5354 16.371C56.3582 15.7307 57.3764 15.4039 58.4123 15.4477C59.3888 15.4693 60.3475 15.7168 61.2155 16.1714C61.5164 16.341 61.8392 16.467 62.1745 16.5457C62.1745 16.5457 64.6334 10.5064 64.6334 10.2319C64.3187 9.86078 63.9178 9.57516 63.467 9.40086C63.0162 9.22657 62.5297 9.1691 62.0515 9.23366ZM45.4784 19.7151C45.3926 17.9318 44.8881 16.1951 44.007 14.6497C43.1259 13.1043 41.8937 11.795 40.413 10.8308C38.6534 9.8674 36.6957 9.33619 34.6972 9.27984C32.6986 9.2235 30.7149 9.6436 28.9053 10.5064C26.3468 11.8757 24.415 14.2033 23.5203 16.9949C22.5961 20.1204 22.5961 23.4525 23.5203 26.578C24.0047 28.2861 24.9103 29.8407 26.1513 31.095C27.697 32.6256 29.69 33.6064 31.8314 33.89C33.206 34.0067 34.5878 34.0067 35.9624 33.89C36.4682 33.8119 36.9691 33.7036 37.4623 33.5656C39.4638 32.9974 41.2644 31.8624 42.6535 30.2935C44.0427 28.7245 44.9628 26.7866 45.3063 24.7063C45.5518 23.0547 45.6095 21.38 45.4784 19.7151ZM35.2493 32.193C32.7904 32.9417 30.9462 30.521 30.3315 25.43C30.1057 22.7646 30.1057 20.0845 30.3315 17.4192C30.8233 13.3264 32.0773 11.2551 34.0199 11.2551C34.4118 11.2304 34.8038 11.3014 35.1631 11.462C35.5225 11.6227 35.8387 11.8683 36.0853 12.1784C37.7328 13.8505 38.5443 17.1696 38.5443 22.1608C38.7489 24.9855 38.3114 27.8202 37.2656 30.4461C36.8039 31.212 36.0894 31.7868 35.2493 32.0682V32.193ZM79.5098 9.73277C78.816 9.64216 78.1136 9.64216 77.4197 9.73277C76.0879 9.73162 74.7713 10.021 73.5592 10.5813L72.797 10.9057V5.49028C72.9302 3.66268 72.9302 1.8276 72.797 0C72.5019 0 63.1088 1.82178 62.9613 1.89664C62.8888 2.08089 62.8888 2.28638 62.9613 2.47063C62.9613 2.9947 62.9613 2.96974 64.0678 3.2193C64.3785 3.29001 64.6769 3.40779 64.953 3.56868C65.433 4.02677 65.7525 4.6314 65.8628 5.29063C66.1428 7.18983 66.2334 9.11283 66.1333 11.0305V32.9417L66.7972 33.0914C67.7808 33.316 70.5594 33.7902 71.4692 33.89C73.2859 34.0367 75.1112 34.0367 76.928 33.89C78.9444 33.681 80.8665 32.9175 82.487 31.6817C84.1076 30.446 85.3652 28.7849 86.1243 26.8774C86.5769 25.6532 86.8904 24.3805 87.0587 23.0841C87.2051 21.3281 87.1473 19.5608 86.8866 17.8185C86.6228 15.8655 85.7735 14.0421 84.4538 12.5956C83.1342 11.1492 81.4082 10.1497 79.5098 9.73277ZM73.0675 31.7688C73.0675 31.4443 72.8216 20.5137 72.8707 16.1464V12.7275L73.5838 12.5528C74.065 12.4828 74.5535 12.4828 75.0346 12.5528C75.5667 12.4979 76.1019 12.6205 76.5591 12.9022C77.4774 13.5454 78.2399 14.3916 78.7894 15.3772C79.3388 16.3627 79.6608 17.462 79.7311 18.5921C79.9102 20.4093 79.9102 22.2402 79.7311 24.0574C79.5839 26.6986 78.5812 29.2165 76.8788 31.2197C76.3956 31.6855 75.7887 31.9978 75.1329 32.1181C74.6367 32.2057 74.1293 32.2057 73.633 32.1181C73.1658 32.1181 73.1658 31.9684 73.1658 31.7688H73.0675Z" fill="#6066D2" fill-opacity="0.2"/>
</svg>
