<svg width="106" height="39" viewBox="0 0 106 39" fill="none" xmlns="http://www.w3.org/2000/svg">
<path fill-rule="evenodd" clip-rule="evenodd" d="M37.9983 11.5881V23.2661H40.8729H43.7475V18.7746C43.7475 15.8102 43.7475 14.1932 43.7475 14.0136C43.8373 13.5644 43.9271 13.1153 44.1966 12.7559C44.5559 12.1271 45.1847 11.8576 45.9034 11.9475C46.8915 12.0373 47.5203 12.5763 47.7 13.7441C47.7 13.9237 47.7 15.7203 47.7 18.5949V23.1763H50.5746H53.539V17.7864C53.539 13.2051 53.539 12.3068 53.4492 11.8576C53.2695 10.2407 52.7305 8.98305 51.7424 8.08475C50.9339 7.27627 49.9458 6.82712 48.778 6.64746C48.3288 6.55763 47.0712 6.64746 46.7119 6.73729C45.6339 7.00678 44.8254 7.3661 44.1068 8.17457L43.6576 8.62373V4.31186V0H40.7831H37.9085V11.5881H37.9983ZM99.0831 0.0898291C98.9034 0.449151 93.0644 14.6424 93.0644 14.6424C93.0644 14.6424 94.5915 14.6424 96.478 14.6424H99.8915L102.946 7.3661C104.653 3.32373 106 0 106 0C106 0 104.473 0 102.586 0H99.1729L99.0831 0.0898291ZM25.3322 6.73729C24.0746 6.91695 23.0864 7.27627 22.0983 7.90508C20.122 9.16271 18.8644 11.3186 18.5051 13.8339C18.3254 15.0017 18.4153 16.439 18.6847 17.517C19.4034 20.3017 21.2898 22.4576 23.7153 23.2661C24.6136 23.5356 24.9729 23.6254 26.0508 23.6254C26.8593 23.6254 27.1288 23.6254 27.3983 23.5356C28.5661 23.2661 29.3746 22.8169 30.0932 22.0983L30.4525 21.739V22.4576V23.1763H33.2373H36.022V15.0915V7.00678H33.2373H30.4525V7.72542V8.44407L30.2729 8.35424C29.6441 7.63559 28.7458 7.18644 27.578 6.91695C27.2186 6.82712 27.039 6.82712 26.3203 6.82712C25.8712 6.73729 25.422 6.73729 25.3322 6.73729ZM62.0729 6.82712C60.5458 7.00678 58.9288 7.72542 57.761 8.62373C55.5153 10.5102 54.3475 13.4746 54.7966 16.5288C55.2458 19.9424 57.6712 22.5475 61.0847 23.4458C61.8034 23.6254 62.522 23.7153 63.4203 23.7153C65.0373 23.7153 66.2051 23.4458 67.4627 22.8169C69.978 21.5593 71.5949 19.3136 71.9542 16.5288C72.0441 15.8102 72.0441 14.6424 71.9542 14.0136C71.7746 12.6661 71.2356 11.3186 70.4271 10.2407C70.0678 9.79152 69.3492 8.98305 68.9 8.62373C67.6424 7.63559 66.2051 7.00678 64.5881 6.82712C63.9593 6.73729 62.7017 6.73729 62.0729 6.82712ZM80.3085 6.82712C78.7814 7.00678 77.2542 7.63559 76.0864 8.62373C75.6373 8.98305 74.8288 9.79152 74.5593 10.2407C73.7508 11.3186 73.3017 12.6661 73.0322 14.0136C72.9424 14.6424 72.9424 15.9 73.0322 16.5288C73.5712 20.122 76.1763 22.9068 79.7695 23.6254C80.4881 23.8051 80.8475 23.8051 81.6559 23.8051C83.1831 23.8051 84.5305 23.5356 85.7881 22.8169C89.1119 21.1102 90.9085 17.3373 90.1 13.4746C89.3814 9.88136 86.5068 7.27627 82.8237 6.82712C82.1949 6.73729 80.9373 6.73729 80.3085 6.82712ZM0 7.09661C0 7.09661 1.52712 10.7797 3.41356 15.2712C5.3 19.7627 6.82712 23.4458 6.82712 23.4458C6.82712 23.4458 6.28814 24.7932 5.56949 26.4102C4.85085 28.0271 4.31187 29.2847 4.31187 29.3746C4.31187 29.4644 5.65932 29.3746 7.3661 29.3746H10.4203L15.0915 18.2356C17.6068 12.1271 19.6729 7.18644 19.6729 7.09661C19.6729 7.09661 19.0441 7.00678 16.6186 7.09661H13.5644L11.678 11.7678C10.6898 14.3729 9.79153 16.439 9.79153 16.439C9.79153 16.439 8.98305 14.283 7.90509 11.7678L6.10848 7.09661H2.96441C1.34746 7.09661 0 7.09661 0 7.09661ZM28.2068 12.0373C29.3746 12.3068 30.2729 13.2051 30.6322 14.3729C30.722 14.822 30.722 15.6305 30.6322 16.0797C30.3627 17.2475 29.4644 18.1458 28.2966 18.4153C27.8475 18.5051 27.039 18.5051 26.5898 18.4153C25.6017 18.1458 24.7034 17.4271 24.3441 16.5288C23.8949 15.5407 24.0746 14.283 24.6136 13.3847C25.3322 12.2169 26.6797 11.678 28.2068 12.0373ZM63.9593 12.0373C65.2169 12.2169 66.2051 13.2051 66.4746 14.4627C66.5644 14.9119 66.5644 15.6305 66.4746 16.0797C66.2051 17.2475 65.3068 18.0559 64.2288 18.4153C63.8695 18.5051 62.8814 18.5051 62.522 18.4153C61.6237 18.1458 60.9051 17.5169 60.4559 16.7085C60.1864 16.1695 60.1864 15.9 60.1864 15.2712C60.1864 14.7322 60.2763 14.4627 60.4559 14.0136C60.7254 13.4746 61.0847 12.9356 61.6237 12.5763C62.2525 12.0373 63.1508 11.8576 63.9593 12.0373ZM82.2847 12.0373C83.3627 12.2169 84.261 12.9356 84.6203 13.9237C84.8 14.3729 84.8898 14.6424 84.8898 15.1814C84.8898 15.8102 84.8 16.0797 84.6203 16.6186C84.261 17.4271 83.4525 18.0559 82.5542 18.3254C82.1949 18.4153 81.2068 18.4153 80.8475 18.3254C79.7695 18.0559 78.8712 17.1576 78.6017 15.9898C78.5119 15.5407 78.5119 14.7322 78.6017 14.283C78.961 12.8458 80.2187 11.8576 81.6559 11.8576C81.7458 11.9475 82.1051 12.0373 82.2847 12.0373ZM94.4119 16.0797C92.7051 16.2593 91.4475 17.5169 91.0881 19.1339C90.9983 19.5831 90.9983 20.3915 91.0881 20.8407C91.4475 22.278 92.5254 23.2661 93.9627 23.6254C94.1424 23.6254 94.5017 23.7153 94.7712 23.7153C95.8492 23.7153 96.7475 23.3559 97.4661 22.6373C98.2746 21.8288 98.5441 21.0203 98.5441 19.9424C98.5441 18.5949 97.9153 17.4271 96.8373 16.7983C96.1186 16.1695 95.2203 15.9898 94.4119 16.0797ZM47.0712 24.8831C45.9034 25.2424 45.3644 26.5898 45.9932 27.578C46.1729 27.8475 46.5322 28.2068 46.8017 28.2966C47.0712 28.3864 47.0712 28.3864 47.6102 28.3864C48.0593 28.3864 48.1492 28.3864 48.4186 28.2966C48.778 28.117 49.1373 27.7576 49.317 27.3983C49.7661 26.5 49.317 25.422 48.4186 24.9729C48.1492 24.7932 48.0593 24.7932 47.7 24.7932C47.4305 24.7932 47.2509 24.7932 47.0712 24.8831ZM42.3102 24.9729C40.7831 25.2424 39.7949 26.2305 39.3458 27.8475C39.2559 28.117 39.2559 28.3864 39.2559 28.7458V29.3746H38.6271H37.9983V30.722V32.0695H38.6271H39.2559V35.3034V38.5373H40.9627H42.6695V35.3034V32.0695H43.8373H45.0051V30.722V29.3746H43.6576H42.4898V29.1051C42.5797 28.4763 42.8492 28.0271 43.3881 27.9373C43.7475 27.8475 44.2864 27.8475 44.6458 28.0271C44.8254 28.117 44.9153 28.1169 44.9153 28.1169C44.9153 28.1169 44.9153 27.4881 44.9153 26.6797V25.2424L44.6458 25.1525C44.2864 24.9729 43.8373 24.9729 43.2085 24.9729C42.8492 24.8831 42.4898 24.8831 42.3102 24.9729ZM55.8746 29.1051C55.1559 29.2847 54.617 29.6441 54.2576 30.0932L54.078 30.3627V29.8237V29.2847H52.3712H50.6644V33.8661V38.4475H52.3712H54.078V35.9322C54.078 34.4949 54.078 33.3271 54.078 33.1475C54.1678 32.7881 54.3475 32.4288 54.5271 32.2492C54.9763 31.8898 55.7847 31.9797 56.1441 32.4288C56.4136 32.7881 56.4136 32.7881 56.4136 35.6627V38.3576H58.1203H59.8271V35.3034C59.8271 32.0695 59.8271 31.7102 59.6475 31.0814C59.4678 30.5424 59.2881 30.0932 58.839 29.7339C58.4797 29.3746 58.1203 29.1051 57.5814 29.0153C57.1322 29.1051 56.3237 29.0153 55.8746 29.1051ZM64.4085 29.1051C63.8695 29.1949 63.061 29.4644 62.6119 29.8237C61.6237 30.5424 60.9949 31.6203 60.7254 32.9678C60.6356 33.5068 60.6356 34.4949 60.7254 35.0339C60.9051 35.8424 61.1746 36.6508 61.6237 37.1898C62.2525 37.9983 63.061 38.5373 64.0491 38.717C64.5881 38.8068 65.4864 38.8068 65.9356 38.6271C66.4746 38.4475 66.8339 38.2678 67.2831 37.9085L67.6424 37.5492V37.9983V38.4475H69.3492H71.0559V33.8661V29.2847H69.3492H67.6424V29.7339V30.1831L67.4627 29.9136C67.0136 29.4644 66.3848 29.1051 65.6661 29.0153C65.3068 29.1051 64.7678 29.0153 64.4085 29.1051ZM77.5237 29.1051C76.8949 29.1949 76.2661 29.6441 75.9068 30.0932L75.7271 30.2729V29.7339V29.1949H74.0203H72.3136V33.7763V38.3576H74.0203H75.7271V35.7525C75.7271 32.9678 75.7271 32.9678 75.9068 32.5186C76.0864 32.1593 76.4458 31.9797 76.8051 31.9797C77.1644 31.9797 77.3441 32.0695 77.6136 32.2492C77.9729 32.6085 77.9729 32.5186 77.9729 35.5729V38.2678H79.6797H81.3864V34.9441C81.3864 31.6203 81.3864 31.6203 81.2966 31.261C81.2068 31.0814 81.117 30.722 81.0271 30.4525C80.8475 30.0932 80.7576 30.0034 80.4881 29.7339C80.1288 29.3746 79.8593 29.1949 79.5 29.0153C78.8712 29.1051 78.0627 29.0153 77.5237 29.1051ZM86.4169 29.1051C84.8898 29.3746 83.722 30.0932 83.0034 31.3508C82.8237 31.7102 82.6441 32.1593 82.4644 32.6085C82.3746 33.0576 82.3746 33.1475 82.3746 33.8661C82.3746 34.6746 82.3746 34.9441 82.6441 35.5729C83.1831 37.1 84.4407 38.2678 86.1475 38.6271C86.417 38.7169 86.6864 38.717 87.3153 38.717C88.2136 38.717 88.5729 38.6271 89.2017 38.3576L89.561 38.178V36.6508V35.1237L89.2915 35.3034C88.8424 35.5729 88.5729 35.6627 88.0339 35.6627C87.4949 35.6627 87.2254 35.6627 86.8661 35.483C86.5068 35.3034 86.2373 35.0339 86.0576 34.6746C85.9678 34.4051 85.9678 34.4051 85.9678 33.9559C85.9678 33.5966 85.9678 33.5068 86.0576 33.2373C86.3271 32.5186 86.9559 32.1593 87.8542 32.0695C88.483 32.0695 88.7525 32.0695 89.6508 32.5186C89.6508 32.5186 89.6508 31.8 89.6508 30.9915V29.4644L89.3814 29.3746C88.3932 29.1051 87.3153 29.0153 86.4169 29.1051ZM94.0525 29.1051C91.4475 29.5542 89.8305 31.8 90.0102 34.4051C90.1 35.3034 90.3695 36.1119 90.8186 36.7407C91.4475 37.7288 92.4356 38.3576 93.6932 38.6271C94.2322 38.7169 95.6695 38.7169 96.2983 38.6271C97.1966 38.4475 98.0051 37.9983 98.6339 37.3695C98.9034 37.1 99.3525 36.4712 99.3525 36.4712C99.3525 36.4712 98.7237 36.2017 97.9153 35.9322L96.478 35.3932L96.2983 35.5729C96.0288 35.8424 95.8492 35.9322 95.4898 36.022C94.5017 36.2915 93.5136 35.7525 93.3339 34.8542V34.6746H96.478H99.622V33.8661C99.622 33.3271 99.622 32.9678 99.5322 32.7881C99.3525 31.7102 98.9034 30.9915 98.2746 30.2729C97.6458 29.6441 96.9271 29.2847 95.939 29.1051C95.5797 29.1051 94.5017 29.0153 94.0525 29.1051ZM45.9932 33.9559V38.5373H47.7H49.4068V33.9559V29.3746H47.7H45.9932V33.9559ZM95.4 31.7102C95.6695 31.8 95.7593 31.8898 96.0288 32.0695C96.2085 32.2492 96.3881 32.4288 96.3881 32.6983V32.878H94.861C93.1542 32.878 93.2441 32.878 93.4237 32.5186C93.6932 31.8 94.5915 31.4407 95.4 31.7102ZM66.3848 32.1593C66.8339 32.2492 67.3729 32.6983 67.5525 33.1475C68.0017 34.1356 67.5525 35.3034 66.4746 35.6627C66.1153 35.7525 65.5763 35.7525 65.2169 35.6627C64.678 35.4831 64.139 35.0339 64.0491 34.4949C63.9593 34.2254 63.9593 34.1356 63.9593 33.8661C63.9593 33.5068 63.9593 33.417 64.139 33.1475C64.5881 32.339 65.4864 31.8898 66.3848 32.1593Z" fill="#6066D2" fill-opacity="0.2"/>
</svg>
